G04 #@! TF.FileFunction,Legend,Bot*
%FSLAX46Y46*%
G04 Gerber Fmt 4.6, Leading zero omitted, Abs format (unit mm)*
G04 Created by KiCad (PCBNEW 4.0.7-e2-6376~58~ubuntu16.04.1) date Sun Nov 18 23:22:19 2018*
%MOMM*%
%LPD*%
G01*
G04 APERTURE LIST*
%ADD10C,0.100000*%
%ADD11C,0.120000*%
%ADD12C,0.250000*%
G04 APERTURE END LIST*
D10*
D11*
X112156880Y-84857420D02*
X110956880Y-84857420D01*
X110956880Y-86617420D02*
X112156880Y-86617420D01*
X112156880Y-87397420D02*
X110956880Y-87397420D01*
X110956880Y-89157420D02*
X112156880Y-89157420D01*
X112156880Y-89937420D02*
X110956880Y-89937420D01*
X110956880Y-91697420D02*
X112156880Y-91697420D01*
X112156880Y-92477420D02*
X110956880Y-92477420D01*
X110956880Y-94237420D02*
X112156880Y-94237420D01*
X112156880Y-95017420D02*
X110956880Y-95017420D01*
X110956880Y-96777420D02*
X112156880Y-96777420D01*
D12*
X116517857Y-86190181D02*
X116851191Y-85713990D01*
X117089286Y-86190181D02*
X117089286Y-85190181D01*
X116708333Y-85190181D01*
X116613095Y-85237800D01*
X116565476Y-85285419D01*
X116517857Y-85380657D01*
X116517857Y-85523514D01*
X116565476Y-85618752D01*
X116613095Y-85666371D01*
X116708333Y-85713990D01*
X117089286Y-85713990D01*
X116136905Y-85285419D02*
X116089286Y-85237800D01*
X115994048Y-85190181D01*
X115755952Y-85190181D01*
X115660714Y-85237800D01*
X115613095Y-85285419D01*
X115565476Y-85380657D01*
X115565476Y-85475895D01*
X115613095Y-85618752D01*
X116184524Y-86190181D01*
X115565476Y-86190181D01*
X115232143Y-85190181D02*
X114613095Y-85190181D01*
X114946429Y-85571133D01*
X114803571Y-85571133D01*
X114708333Y-85618752D01*
X114660714Y-85666371D01*
X114613095Y-85761610D01*
X114613095Y-85999705D01*
X114660714Y-86094943D01*
X114708333Y-86142562D01*
X114803571Y-86190181D01*
X115089286Y-86190181D01*
X115184524Y-86142562D01*
X115232143Y-86094943D01*
X116517857Y-88729801D02*
X116851191Y-88253610D01*
X117089286Y-88729801D02*
X117089286Y-87729801D01*
X116708333Y-87729801D01*
X116613095Y-87777420D01*
X116565476Y-87825039D01*
X116517857Y-87920277D01*
X116517857Y-88063134D01*
X116565476Y-88158372D01*
X116613095Y-88205991D01*
X116708333Y-88253610D01*
X117089286Y-88253610D01*
X116136905Y-87825039D02*
X116089286Y-87777420D01*
X115994048Y-87729801D01*
X115755952Y-87729801D01*
X115660714Y-87777420D01*
X115613095Y-87825039D01*
X115565476Y-87920277D01*
X115565476Y-88015515D01*
X115613095Y-88158372D01*
X116184524Y-88729801D01*
X115565476Y-88729801D01*
X114708333Y-88063134D02*
X114708333Y-88729801D01*
X114946429Y-87682182D02*
X115184524Y-88396468D01*
X114565476Y-88396468D01*
X116517857Y-91270181D02*
X116851191Y-90793990D01*
X117089286Y-91270181D02*
X117089286Y-90270181D01*
X116708333Y-90270181D01*
X116613095Y-90317800D01*
X116565476Y-90365419D01*
X116517857Y-90460657D01*
X116517857Y-90603514D01*
X116565476Y-90698752D01*
X116613095Y-90746371D01*
X116708333Y-90793990D01*
X117089286Y-90793990D01*
X116136905Y-90365419D02*
X116089286Y-90317800D01*
X115994048Y-90270181D01*
X115755952Y-90270181D01*
X115660714Y-90317800D01*
X115613095Y-90365419D01*
X115565476Y-90460657D01*
X115565476Y-90555895D01*
X115613095Y-90698752D01*
X116184524Y-91270181D01*
X115565476Y-91270181D01*
X114660714Y-90270181D02*
X115136905Y-90270181D01*
X115184524Y-90746371D01*
X115136905Y-90698752D01*
X115041667Y-90651133D01*
X114803571Y-90651133D01*
X114708333Y-90698752D01*
X114660714Y-90746371D01*
X114613095Y-90841610D01*
X114613095Y-91079705D01*
X114660714Y-91174943D01*
X114708333Y-91222562D01*
X114803571Y-91270181D01*
X115041667Y-91270181D01*
X115136905Y-91222562D01*
X115184524Y-91174943D01*
X116517857Y-93810181D02*
X116851191Y-93333990D01*
X117089286Y-93810181D02*
X117089286Y-92810181D01*
X116708333Y-92810181D01*
X116613095Y-92857800D01*
X116565476Y-92905419D01*
X116517857Y-93000657D01*
X116517857Y-93143514D01*
X116565476Y-93238752D01*
X116613095Y-93286371D01*
X116708333Y-93333990D01*
X117089286Y-93333990D01*
X116136905Y-92905419D02*
X116089286Y-92857800D01*
X115994048Y-92810181D01*
X115755952Y-92810181D01*
X115660714Y-92857800D01*
X115613095Y-92905419D01*
X115565476Y-93000657D01*
X115565476Y-93095895D01*
X115613095Y-93238752D01*
X116184524Y-93810181D01*
X115565476Y-93810181D01*
X114708333Y-92810181D02*
X114898810Y-92810181D01*
X114994048Y-92857800D01*
X115041667Y-92905419D01*
X115136905Y-93048276D01*
X115184524Y-93238752D01*
X115184524Y-93619705D01*
X115136905Y-93714943D01*
X115089286Y-93762562D01*
X114994048Y-93810181D01*
X114803571Y-93810181D01*
X114708333Y-93762562D01*
X114660714Y-93714943D01*
X114613095Y-93619705D01*
X114613095Y-93381610D01*
X114660714Y-93286371D01*
X114708333Y-93238752D01*
X114803571Y-93191133D01*
X114994048Y-93191133D01*
X115089286Y-93238752D01*
X115136905Y-93286371D01*
X115184524Y-93381610D01*
X116492457Y-96350181D02*
X116825791Y-95873990D01*
X117063886Y-96350181D02*
X117063886Y-95350181D01*
X116682933Y-95350181D01*
X116587695Y-95397800D01*
X116540076Y-95445419D01*
X116492457Y-95540657D01*
X116492457Y-95683514D01*
X116540076Y-95778752D01*
X116587695Y-95826371D01*
X116682933Y-95873990D01*
X117063886Y-95873990D01*
X116111505Y-95445419D02*
X116063886Y-95397800D01*
X115968648Y-95350181D01*
X115730552Y-95350181D01*
X115635314Y-95397800D01*
X115587695Y-95445419D01*
X115540076Y-95540657D01*
X115540076Y-95635895D01*
X115587695Y-95778752D01*
X116159124Y-96350181D01*
X115540076Y-96350181D01*
X115206743Y-95350181D02*
X114540076Y-95350181D01*
X114968648Y-96350181D01*
M02*
