G04 #@! TF.FileFunction,Soldermask,Top*
%FSLAX46Y46*%
G04 Gerber Fmt 4.6, Leading zero omitted, Abs format (unit mm)*
G04 Created by KiCad (PCBNEW 4.0.7-e2-6376~58~ubuntu16.04.1) date Sun Nov 18 23:22:19 2018*
%MOMM*%
%LPD*%
G01*
G04 APERTURE LIST*
%ADD10C,0.100000*%
%ADD11R,3.900000X1.900000*%
%ADD12C,2.540000*%
%ADD13R,1.700000X2.000000*%
%ADD14R,2.100000X2.100000*%
%ADD15O,2.100000X2.100000*%
%ADD16C,1.797000*%
%ADD17C,1.840000*%
%ADD18C,3.600000*%
%ADD19C,1.924000*%
%ADD20R,2.400000X2.400000*%
%ADD21C,2.400000*%
%ADD22R,1.900000X3.600000*%
%ADD23R,1.650000X1.900000*%
%ADD24R,3.000000X2.000000*%
%ADD25R,3.900000X2.000000*%
%ADD26R,4.400000X2.900000*%
%ADD27R,1.900000X1.650000*%
%ADD28R,2.600000X2.600000*%
%ADD29O,2.600000X2.600000*%
%ADD30R,0.850000X1.000000*%
%ADD31R,2.000000X2.000000*%
%ADD32O,2.000000X2.000000*%
%ADD33R,1.400000X1.900000*%
%ADD34R,1.100000X1.900000*%
%ADD35C,2.000000*%
%ADD36C,1.500000*%
%ADD37R,1.900000X3.200000*%
%ADD38R,3.400000X3.400000*%
%ADD39C,3.400000*%
%ADD40C,2.200000*%
%ADD41R,1.300000X1.600000*%
%ADD42C,1.400000*%
%ADD43R,1.400000X1.400000*%
%ADD44R,2.200000X2.200000*%
%ADD45O,2.200000X2.200000*%
%ADD46R,1.700000X1.900000*%
%ADD47R,1.900000X1.700000*%
%ADD48C,2.900000*%
%ADD49C,1.900000*%
%ADD50R,1.200000X0.700000*%
%ADD51R,1.960000X1.050000*%
%ADD52R,1.300000X1.200000*%
%ADD53R,5.000000X1.500000*%
%ADD54R,9.800000X11.200000*%
%ADD55R,2.400000X4.200000*%
%ADD56R,2.400000X1.900000*%
%ADD57R,1.000000X1.950000*%
%ADD58R,1.500000X1.450000*%
%ADD59R,0.680000X1.900000*%
%ADD60R,1.900000X0.680000*%
%ADD61R,1.100000X1.000000*%
G04 APERTURE END LIST*
D10*
D11*
X142670380Y-138853420D03*
X158140380Y-141393420D03*
X158140380Y-138853420D03*
X158140380Y-143933420D03*
X158140380Y-146473420D03*
X142670380Y-141393420D03*
X142670380Y-143933420D03*
X142670380Y-146473420D03*
D12*
X190000000Y-54999800D03*
X140000000Y-116999800D03*
X105000000Y-59999800D03*
D13*
X170364880Y-115831420D03*
X170364880Y-112031420D03*
X168064880Y-112031420D03*
X168064880Y-115831420D03*
D14*
X153840380Y-59583420D03*
D15*
X156380380Y-59583420D03*
X158920380Y-59583420D03*
X161460380Y-59583420D03*
X164000380Y-59583420D03*
X166540380Y-59583420D03*
X169080380Y-59583420D03*
X171620380Y-59583420D03*
D16*
X189919880Y-84379420D03*
X194999880Y-84379420D03*
X189919880Y-91999420D03*
X194999880Y-91999420D03*
D17*
X194999880Y-61999420D03*
X192459880Y-61999420D03*
X189919880Y-61999420D03*
D18*
X194999880Y-54999420D03*
X104992380Y-54999420D03*
D19*
X184388960Y-112067640D03*
X179388960Y-115267640D03*
X189388960Y-115267640D03*
D18*
X194992380Y-145007420D03*
D20*
X168000000Y-74599800D03*
D21*
X168000000Y-66999800D03*
D22*
X105079880Y-72021420D03*
X105079880Y-68021420D03*
D23*
X108254880Y-71239420D03*
X108254880Y-68739420D03*
D24*
X162270380Y-140093420D03*
X165870380Y-140093420D03*
D25*
X169682380Y-125242420D03*
X175082380Y-125242420D03*
D26*
X169268880Y-134818220D03*
X175368880Y-134818220D03*
D25*
X132090380Y-126639420D03*
X137490380Y-126639420D03*
D24*
X117010380Y-130957420D03*
X113410380Y-130957420D03*
D25*
X132250380Y-143149420D03*
X137650380Y-143149420D03*
X122946380Y-120289420D03*
X128346380Y-120289420D03*
D27*
X170464880Y-118503420D03*
X167964880Y-118503420D03*
X167964880Y-109359420D03*
X170464880Y-109359420D03*
D23*
X152577880Y-122079420D03*
X152577880Y-124579420D03*
X158165880Y-121952420D03*
X158165880Y-124452420D03*
X147243880Y-86487420D03*
X147243880Y-83987420D03*
D27*
X162723446Y-99272104D03*
X165223446Y-99272104D03*
X137698880Y-96722920D03*
X135198880Y-96722920D03*
D23*
X147243880Y-113697420D03*
X147243880Y-116197420D03*
X144703880Y-86487420D03*
X144703880Y-83987420D03*
D27*
X162717240Y-96722920D03*
X165217240Y-96722920D03*
X137698880Y-99262920D03*
X135198880Y-99262920D03*
D23*
X144703880Y-113697420D03*
X144703880Y-116197420D03*
X158165880Y-113697420D03*
X158165880Y-116197420D03*
X146875580Y-69653820D03*
X146875580Y-72153820D03*
D27*
X191205880Y-81927420D03*
X193705880Y-81927420D03*
X191205880Y-108724420D03*
X193705880Y-108724420D03*
X191205880Y-79514420D03*
X193705880Y-79514420D03*
D28*
X123614380Y-136037420D03*
D29*
X113454380Y-136037420D03*
D30*
X117170780Y-110916820D03*
X117170780Y-108816820D03*
X155371880Y-113897420D03*
X155371880Y-115997420D03*
X160705880Y-113897420D03*
X160705880Y-115997420D03*
D31*
X184836000Y-65671420D03*
D32*
X184836000Y-75831420D03*
D28*
X179240380Y-120987920D03*
D29*
X189400380Y-120987920D03*
D33*
X117696880Y-78303420D03*
X120196880Y-78303420D03*
X122696880Y-78303420D03*
X125196880Y-78303420D03*
X127696880Y-78303420D03*
X130196880Y-78303420D03*
X132626880Y-78303420D03*
X134326880Y-78303420D03*
X115196880Y-78303420D03*
D34*
X135626880Y-78303420D03*
X136826880Y-78303420D03*
D35*
X115071880Y-75503420D03*
D36*
X136071880Y-75503420D03*
D37*
X113121880Y-76503420D03*
X110921880Y-55003420D03*
X138221880Y-55003420D03*
X138221880Y-76503420D03*
D38*
X104992380Y-132927420D03*
D39*
X104992380Y-138007420D03*
D14*
X104999880Y-82219420D03*
D15*
X104999880Y-84759420D03*
X104999880Y-87299420D03*
X104999880Y-89839420D03*
X104999880Y-92379420D03*
X104999880Y-94919420D03*
X104999880Y-97459420D03*
X104999880Y-99999420D03*
D38*
X182912380Y-145007420D03*
D39*
X187992380Y-145007420D03*
D14*
X120700780Y-111137800D03*
D15*
X120700780Y-108597800D03*
D14*
X163152020Y-81066740D03*
D15*
X165692020Y-81066740D03*
D14*
X178188820Y-81066740D03*
D15*
X180728820Y-81066740D03*
D40*
X108170380Y-112893420D03*
X108170380Y-106893420D03*
D41*
X149783880Y-113847420D03*
X149783880Y-116047420D03*
D42*
X179463900Y-103393340D03*
X178193900Y-102123340D03*
D43*
X180733900Y-102123340D03*
D44*
X194992380Y-133007420D03*
D45*
X194992380Y-135547420D03*
X194992380Y-138087420D03*
D44*
X194992380Y-121007420D03*
D45*
X194992380Y-123547420D03*
X194992380Y-126087420D03*
D46*
X152577880Y-132139420D03*
X152577880Y-134839420D03*
D47*
X110206880Y-80657420D03*
X112906880Y-80657420D03*
D46*
X134327980Y-86587420D03*
X134327980Y-83887420D03*
D47*
X110206880Y-83197420D03*
X112906880Y-83197420D03*
D46*
X122725380Y-83887420D03*
X122725380Y-86587420D03*
X155371880Y-132139420D03*
X155371880Y-134839420D03*
X158165880Y-132139420D03*
X158165880Y-134839420D03*
X163809880Y-134847420D03*
X163809880Y-132147420D03*
X160896500Y-132139420D03*
X160896500Y-134839420D03*
D47*
X184621380Y-127655420D03*
X187321380Y-127655420D03*
X180821400Y-94038140D03*
X178121400Y-94038140D03*
X178111240Y-96583220D03*
X180811240Y-96583220D03*
X168499880Y-92087420D03*
X171199880Y-92087420D03*
X180788500Y-84213800D03*
X178088500Y-84213800D03*
X125319880Y-99262920D03*
X128019880Y-99262920D03*
X125319880Y-96722920D03*
X128019880Y-96722920D03*
X135213180Y-105623080D03*
X137913180Y-105623080D03*
X135213180Y-109159140D03*
X137913180Y-109159140D03*
D46*
X152577880Y-113597420D03*
X152577880Y-116297420D03*
D47*
X110206880Y-98437420D03*
X112906880Y-98437420D03*
D46*
X151999880Y-69553820D03*
X151999880Y-72253820D03*
X149415580Y-69553820D03*
X149415580Y-72253820D03*
X144703880Y-131840080D03*
X144703880Y-134540080D03*
X142158920Y-131840080D03*
X142158920Y-134540080D03*
D47*
X193805880Y-94119420D03*
X191105880Y-94119420D03*
X193805880Y-96659420D03*
X191105880Y-96659420D03*
X193805880Y-66814420D03*
X191105880Y-66814420D03*
D48*
X123360380Y-144927420D03*
X118661380Y-144927420D03*
X113962380Y-144927420D03*
X110787380Y-146514920D03*
X126535380Y-146514920D03*
X110787380Y-143339920D03*
X126535380Y-143339920D03*
D16*
X189919880Y-98942858D03*
X194999880Y-98942858D03*
X189919880Y-106562858D03*
X194999880Y-106562858D03*
X189919880Y-69379420D03*
X194999880Y-69379420D03*
X189919880Y-76999420D03*
X194999880Y-76999420D03*
D49*
X128194000Y-109893420D03*
X125654000Y-109893420D03*
X170218300Y-89483360D03*
X118915380Y-89809420D03*
X123995380Y-89809420D03*
X126535380Y-89809420D03*
X121455380Y-89809420D03*
X164000380Y-56230620D03*
X156380380Y-56223000D03*
X158920380Y-56230620D03*
X161460380Y-56230620D03*
X144569380Y-121813420D03*
X142029380Y-121813420D03*
X147109380Y-121813420D03*
X149649380Y-121813420D03*
D50*
X165620380Y-145643420D03*
X165620380Y-145143420D03*
X165620380Y-144643420D03*
X165620380Y-144143420D03*
X162520380Y-144143420D03*
X162520380Y-144643420D03*
X162520380Y-145143420D03*
X162520380Y-145643420D03*
D31*
X182034380Y-131973420D03*
D32*
X189654380Y-137053420D03*
X182034380Y-134513420D03*
X189654380Y-134513420D03*
X182034380Y-137053420D03*
X189654380Y-131973420D03*
D51*
X137913180Y-103316800D03*
X137913180Y-102366800D03*
X137913180Y-101416800D03*
X135213180Y-101416800D03*
X135213180Y-103316800D03*
D52*
X129429200Y-101424800D03*
X129429200Y-103324800D03*
X131429200Y-102374800D03*
D53*
X115994380Y-125369420D03*
X115994380Y-123669420D03*
X115994380Y-121969420D03*
X115994380Y-120269420D03*
X115994380Y-118569420D03*
D54*
X106844380Y-121969420D03*
D55*
X138194380Y-135275420D03*
D56*
X131894380Y-135275420D03*
X131894380Y-137575420D03*
X131894380Y-132975420D03*
D57*
X158508780Y-68203820D03*
X157238780Y-68203820D03*
X155968780Y-68203820D03*
X154698780Y-68203820D03*
X154698780Y-73603820D03*
X155968780Y-73603820D03*
X157238780Y-73603820D03*
X158508780Y-73603820D03*
D52*
X150183680Y-134414020D03*
X150183680Y-132514020D03*
X148183680Y-133464020D03*
D58*
X155371880Y-124254420D03*
X155371880Y-122404420D03*
D18*
X104992380Y-145007420D03*
D38*
X170590380Y-144893420D03*
D39*
X175670380Y-144893420D03*
D59*
X143999880Y-107899420D03*
X144499880Y-107899420D03*
X144999880Y-107899420D03*
X145499880Y-107899420D03*
X145999880Y-107899420D03*
X146499880Y-107899420D03*
X146999880Y-107899420D03*
X147499880Y-107899420D03*
X147999880Y-107899420D03*
X148499880Y-107899420D03*
X148999880Y-107899420D03*
X149499880Y-107899420D03*
X149999880Y-107899420D03*
X150499880Y-107899420D03*
X150999880Y-107899420D03*
X151499880Y-107899420D03*
X151999880Y-107899420D03*
X152499880Y-107899420D03*
X152999880Y-107899420D03*
X153499880Y-107899420D03*
X153999880Y-107899420D03*
X154499880Y-107899420D03*
X154999880Y-107899420D03*
X155499880Y-107899420D03*
X155999880Y-107899420D03*
D60*
X157899880Y-105999420D03*
X157899880Y-105499420D03*
X157899880Y-104999420D03*
X157899880Y-104499420D03*
X157899880Y-103999420D03*
X157899880Y-103499420D03*
X157899880Y-102999420D03*
X157899880Y-102499420D03*
X157899880Y-101999420D03*
X157899880Y-101499420D03*
X157899880Y-100999420D03*
X157899880Y-100499420D03*
X157899880Y-99999420D03*
X157899880Y-99499420D03*
X157899880Y-98999420D03*
X157899880Y-98499420D03*
X157899880Y-97999420D03*
X157899880Y-97499420D03*
X157899880Y-96999420D03*
X157899880Y-96499420D03*
X157899880Y-95999420D03*
X157899880Y-95499420D03*
X157899880Y-94999420D03*
X157899880Y-94499420D03*
X157899880Y-93999420D03*
D59*
X155999880Y-92099420D03*
X155499880Y-92099420D03*
X154999880Y-92099420D03*
X154499880Y-92099420D03*
X153999880Y-92099420D03*
X153499880Y-92099420D03*
X152999880Y-92099420D03*
X152499880Y-92099420D03*
X151999880Y-92099420D03*
X151499880Y-92099420D03*
X150999880Y-92099420D03*
X150499880Y-92099420D03*
X149999880Y-92099420D03*
X149499880Y-92099420D03*
X148999880Y-92099420D03*
X148499880Y-92099420D03*
X147999880Y-92099420D03*
X147499880Y-92099420D03*
X146999880Y-92099420D03*
X146499880Y-92099420D03*
X145999880Y-92099420D03*
X145499880Y-92099420D03*
X144999880Y-92099420D03*
X144499880Y-92099420D03*
X143999880Y-92099420D03*
D60*
X142099880Y-93999420D03*
X142099880Y-94499420D03*
X142099880Y-94999420D03*
X142099880Y-95499420D03*
X142099880Y-95999420D03*
X142099880Y-96499420D03*
X142099880Y-96999420D03*
X142099880Y-97499420D03*
X142099880Y-97999420D03*
X142099880Y-98499420D03*
X142099880Y-98999420D03*
X142099880Y-99499420D03*
X142099880Y-99999420D03*
X142099880Y-100499420D03*
X142099880Y-100999420D03*
X142099880Y-101499420D03*
X142099880Y-101999420D03*
X142099880Y-102499420D03*
X142099880Y-102999420D03*
X142099880Y-103499420D03*
X142099880Y-103999420D03*
X142099880Y-104499420D03*
X142099880Y-104999420D03*
X142099880Y-105499420D03*
X142099880Y-105999420D03*
D61*
X163807340Y-122652420D03*
X163807340Y-123752420D03*
X156388000Y-84687420D03*
X156388000Y-85787420D03*
D44*
X170484880Y-99834420D03*
D40*
X173024880Y-99834420D03*
D46*
X160896500Y-121852420D03*
X160896500Y-124552420D03*
X153848000Y-86579800D03*
X153848000Y-83879800D03*
D49*
X170218300Y-86943360D03*
D12*
X195000000Y-113999800D03*
M02*
