M48
;DRILL file {KiCad 4.0.7-e2-6376~58~ubuntu16.04.1} date Sun Nov 18 23:22:22 2018
;FORMAT={-:-/ absolute / inch / decimal}
FMAT,2
INCH,TZ
T1C0.016
T2C0.024
T3C0.028
T4C0.031
T5C0.032
T6C0.035
T7C0.039
T8C0.043
T9C0.060
T10C0.073
%
G90
G05
M72
T1
X4.0725Y-3.0857
X4.1158Y-3.0857
X4.1594Y-3.0857
X4.1943Y-2.4602
X4.1943Y-2.502
X4.5587Y-4.0258
X4.6158Y-3.7303
X4.6277Y-4.0778
X4.6286Y-4.1355
X4.8317Y-3.6645
X4.851Y-3.9765
X4.8813Y-3.2014
X4.9057Y-3.9765
X4.9291Y-3.1662
X4.9291Y-3.2014
X4.9548Y-3.9765
X4.9742Y-4.1727
X4.9777Y-3.2014
X5.026Y-3.9755
X5.0807Y-3.6645
X5.1275Y-3.775
X5.1275Y-3.808
X5.1275Y-3.808
X5.1275Y-3.808
X5.1275Y-3.8415
X5.137Y-4.1585
X5.1385Y-3.3297
X5.1385Y-3.3829
X5.1385Y-3.4422
X5.388Y-5.1535
X5.4408Y-5.1531
X5.4673Y-5.547
X5.4673Y-5.7242
X5.4996Y-3.9288
X5.5222Y-4.0944
X5.5256Y-5.0463
X5.5256Y-5.092
X5.5256Y-5.1413
X5.5297Y-4.1733
X5.5427Y-4.3816
X5.5679Y-4.4951
X5.5867Y-2.4758
X5.5979Y-4.2385
X5.6459Y-5.355
X5.6565Y-3.4695
X5.7472Y-4.6969
X5.7473Y-4.6585
X5.769Y-5.295
X5.8174Y-5.1206
X5.828Y-3.5282
X5.8817Y-2.9958
X5.8972Y-4.7215
X5.9225Y-5.092
X5.974Y-4.3925
X6.0629Y-4.6572
X6.0817Y-2.9958
X6.1673Y-4.9431
X6.182Y-5.37
X6.1998Y-4.2313
X6.2024Y-3.64
X6.2276Y-3.6148
X6.2319Y-4.2634
X6.247Y-3.4005
X6.315Y-4.1338
X6.3349Y-2.7164
X6.407Y-4.6151
X6.449Y-5.0655
X6.4771Y-3.6874
X6.552Y-4.9305
T2
X7.0155Y-4.0206
X7.0655Y-4.0706
X7.1155Y-4.0206
T3
X4.6817Y-3.5358
X4.7817Y-3.5358
X4.8817Y-3.5358
X4.947Y-4.3265
X4.9817Y-3.5358
X5.047Y-4.3265
X5.5917Y-4.7958
X5.6917Y-4.7958
X5.7917Y-4.7958
X5.8917Y-4.7958
X6.1567Y-2.2135
X6.2567Y-2.2138
X6.3567Y-2.2138
X6.4567Y-2.2138
X6.7015Y-3.423
X6.7015Y-3.523
T4
X7.1667Y-5.1958
X7.1667Y-5.2958
X7.1667Y-5.3958
X7.277Y-2.5855
X7.277Y-2.9855
X7.4667Y-5.1958
X7.4667Y-5.2958
X7.4667Y-5.3958
X7.4772Y-2.4409
X7.5772Y-2.4409
X7.6772Y-2.4409
T5
X7.4772Y-2.7315
X7.4772Y-3.0315
X7.4772Y-3.322
X7.4772Y-3.622
X7.4772Y-3.8954
X7.4772Y-4.1954
X7.6772Y-2.7315
X7.6772Y-3.0315
X7.6772Y-3.322
X7.6772Y-3.622
X7.6772Y-3.8954
X7.6772Y-4.1954
T6
X6.712Y-3.9305
X6.812Y-3.9305
T7
X4.1339Y-3.237
X4.1339Y-3.337
X4.1339Y-3.437
X4.1339Y-3.537
X4.1339Y-3.637
X4.1339Y-3.737
X4.1339Y-3.837
X4.1339Y-3.937
X4.2587Y-4.2084
X4.2587Y-4.4446
X4.752Y-4.2755
X4.752Y-4.3755
X6.0567Y-2.3458
X6.1567Y-2.3458
X6.2567Y-2.3458
X6.3567Y-2.3458
X6.4233Y-3.1916
X6.4567Y-2.3458
X6.5233Y-3.1916
X6.5567Y-2.3458
X6.6142Y-2.6378
X6.6142Y-2.937
X6.6567Y-2.3458
X6.7567Y-2.3458
X7.0153Y-3.1916
X7.0626Y-4.5381
X7.1153Y-3.1916
X7.2594Y-4.4121
X7.4563Y-4.5381
X7.6769Y-4.7641
X7.6769Y-4.8641
X7.6769Y-4.9641
X7.6769Y-5.2365
X7.6769Y-5.3365
X7.6769Y-5.4365
T8
X4.4667Y-5.3558
X4.8667Y-5.3558
X7.0567Y-4.7633
X7.4567Y-4.7633
T9
X4.1336Y-5.2334
X4.1336Y-5.4334
X6.7162Y-5.7045
X6.9162Y-5.7045
X7.2013Y-5.709
X7.4013Y-5.709
T10
X4.4867Y-5.7058
X4.6717Y-5.7058
X4.8567Y-5.7058
T0
M30
