G04 #@! TF.FileFunction,Paste,Top*
%FSLAX46Y46*%
G04 Gerber Fmt 4.6, Leading zero omitted, Abs format (unit mm)*
G04 Created by KiCad (PCBNEW 4.0.7-e2-6376~58~ubuntu16.04.1) date Sun Nov 18 23:18:58 2018*
%MOMM*%
%LPD*%
G01*
G04 APERTURE LIST*
%ADD10C,0.100000*%
%ADD11R,1.500000X1.250000*%
%ADD12R,1.500000X1.300000*%
%ADD13R,1.550000X0.600000*%
%ADD14R,1.500000X0.280000*%
%ADD15R,0.280000X1.500000*%
%ADD16R,1.300000X1.500000*%
%ADD17R,0.650000X1.560000*%
%ADD18R,1.250000X1.500000*%
%ADD19R,0.600000X0.700000*%
%ADD20R,0.800000X0.900000*%
%ADD21C,1.800000*%
%ADD22R,3.200000X1.500000*%
%ADD23R,1.500000X1.000000*%
%ADD24R,1.500000X0.700000*%
%ADD25R,2.800000X1.500000*%
%ADD26R,1.600000X1.300000*%
%ADD27R,0.600000X0.450000*%
%ADD28R,1.600000X3.500000*%
%ADD29R,2.500000X4.000000*%
%ADD30R,1.050000X1.100000*%
%ADD31R,1.600000X2.600000*%
%ADD32R,1.100000X4.600000*%
%ADD33R,5.250000X4.550000*%
%ADD34R,1.200000X0.900000*%
%ADD35R,3.800000X2.000000*%
%ADD36R,1.500000X2.000000*%
%ADD37R,0.300000X0.800000*%
%ADD38R,1.500000X3.500000*%
G04 APERTURE END LIST*
D10*
D11*
X63512580Y-147243880D03*
X66012580Y-147243880D03*
D12*
X63412580Y-134327980D03*
X66112580Y-134327980D03*
X80446180Y-149415580D03*
X77746180Y-149415580D03*
D11*
X63512580Y-144703880D03*
X66012580Y-144703880D03*
D12*
X63420200Y-153848000D03*
X66120200Y-153848000D03*
D13*
X81796180Y-158508780D03*
X81796180Y-157238780D03*
X81796180Y-155968780D03*
X81796180Y-154698780D03*
X76396180Y-154698780D03*
X76396180Y-155968780D03*
X76396180Y-157238780D03*
X76396180Y-158508780D03*
D11*
X80346180Y-146875580D03*
X77846180Y-146875580D03*
D12*
X80446180Y-151999880D03*
X77746180Y-151999880D03*
D11*
X36302580Y-147243880D03*
X33802580Y-147243880D03*
D12*
X36402580Y-152577880D03*
X33702580Y-152577880D03*
D14*
X42100580Y-143999880D03*
X42100580Y-144499880D03*
X42100580Y-144999880D03*
X42100580Y-145499880D03*
X42100580Y-145999880D03*
X42100580Y-146499880D03*
X42100580Y-146999880D03*
X42100580Y-147499880D03*
X42100580Y-147999880D03*
X42100580Y-148499880D03*
X42100580Y-148999880D03*
X42100580Y-149499880D03*
X42100580Y-149999880D03*
X42100580Y-150499880D03*
X42100580Y-150999880D03*
X42100580Y-151499880D03*
X42100580Y-151999880D03*
X42100580Y-152499880D03*
X42100580Y-152999880D03*
X42100580Y-153499880D03*
X42100580Y-153999880D03*
X42100580Y-154499880D03*
X42100580Y-154999880D03*
X42100580Y-155499880D03*
X42100580Y-155999880D03*
D15*
X44000580Y-157899880D03*
X44500580Y-157899880D03*
X45000580Y-157899880D03*
X45500580Y-157899880D03*
X46000580Y-157899880D03*
X46500580Y-157899880D03*
X47000580Y-157899880D03*
X47500580Y-157899880D03*
X48000580Y-157899880D03*
X48500580Y-157899880D03*
X49000580Y-157899880D03*
X49500580Y-157899880D03*
X50000580Y-157899880D03*
X50500580Y-157899880D03*
X51000580Y-157899880D03*
X51500580Y-157899880D03*
X52000580Y-157899880D03*
X52500580Y-157899880D03*
X53000580Y-157899880D03*
X53500580Y-157899880D03*
X54000580Y-157899880D03*
X54500580Y-157899880D03*
X55000580Y-157899880D03*
X55500580Y-157899880D03*
X56000580Y-157899880D03*
D14*
X57900580Y-155999880D03*
X57900580Y-155499880D03*
X57900580Y-154999880D03*
X57900580Y-154499880D03*
X57900580Y-153999880D03*
X57900580Y-153499880D03*
X57900580Y-152999880D03*
X57900580Y-152499880D03*
X57900580Y-151999880D03*
X57900580Y-151499880D03*
X57900580Y-150999880D03*
X57900580Y-150499880D03*
X57900580Y-149999880D03*
X57900580Y-149499880D03*
X57900580Y-148999880D03*
X57900580Y-148499880D03*
X57900580Y-147999880D03*
X57900580Y-147499880D03*
X57900580Y-146999880D03*
X57900580Y-146499880D03*
X57900580Y-145999880D03*
X57900580Y-145499880D03*
X57900580Y-144999880D03*
X57900580Y-144499880D03*
X57900580Y-143999880D03*
D15*
X56000580Y-142099880D03*
X55500580Y-142099880D03*
X55000580Y-142099880D03*
X54500580Y-142099880D03*
X54000580Y-142099880D03*
X53500580Y-142099880D03*
X53000580Y-142099880D03*
X52500580Y-142099880D03*
X52000580Y-142099880D03*
X51500580Y-142099880D03*
X51000580Y-142099880D03*
X50500580Y-142099880D03*
X50000580Y-142099880D03*
X49500580Y-142099880D03*
X49000580Y-142099880D03*
X48500580Y-142099880D03*
X48000580Y-142099880D03*
X47500580Y-142099880D03*
X47000580Y-142099880D03*
X46500580Y-142099880D03*
X46000580Y-142099880D03*
X45500580Y-142099880D03*
X45000580Y-142099880D03*
X44500580Y-142099880D03*
X44000580Y-142099880D03*
D11*
X36302580Y-144703880D03*
X33802580Y-144703880D03*
D16*
X40840860Y-135213180D03*
X40840860Y-137913180D03*
X44376920Y-135213180D03*
X44376920Y-137913180D03*
D17*
X46683200Y-137913180D03*
X47633200Y-137913180D03*
X48583200Y-137913180D03*
X48583200Y-135213180D03*
X46683200Y-135213180D03*
D18*
X53277080Y-162717240D03*
X53277080Y-165217240D03*
D16*
X57912580Y-168499880D03*
X57912580Y-171199880D03*
D19*
X65312580Y-156388000D03*
X64212580Y-156388000D03*
D16*
X65786200Y-180788500D03*
X65786200Y-178088500D03*
D20*
X48575200Y-129429200D03*
X46675200Y-129429200D03*
X47625200Y-131429200D03*
D18*
X53277080Y-137698880D03*
X53277080Y-135198880D03*
X50737080Y-137698880D03*
X50737080Y-135198880D03*
D16*
X50737080Y-125319880D03*
X50737080Y-128019880D03*
X53277080Y-125319880D03*
X53277080Y-128019880D03*
D21*
X37106580Y-108170380D03*
X43106580Y-108170380D03*
D12*
X66112580Y-122725380D03*
X63412580Y-122725380D03*
D16*
X66802580Y-110206880D03*
X66802580Y-112906880D03*
X69342580Y-110206880D03*
X69342580Y-112906880D03*
X51562580Y-110206880D03*
X51562580Y-112906880D03*
D11*
X78760580Y-108254880D03*
X81260580Y-108254880D03*
D22*
X77978580Y-105079880D03*
X81978580Y-105079880D03*
D23*
X71696580Y-117696880D03*
X71696580Y-120196880D03*
X71696580Y-122696880D03*
X71696580Y-125196880D03*
X71696580Y-127696880D03*
X71696580Y-130196880D03*
X71696580Y-132626880D03*
X71696580Y-134326880D03*
X71696580Y-115196880D03*
D24*
X71696580Y-135626880D03*
X71696580Y-136826880D03*
D25*
X73496580Y-113121880D03*
X94996580Y-110921880D03*
X94996580Y-138221880D03*
X73496580Y-138221880D03*
D18*
X31496580Y-170464880D03*
X31496580Y-167964880D03*
D26*
X34168580Y-170364880D03*
X37968580Y-170364880D03*
X37968580Y-168064880D03*
X34168580Y-168064880D03*
D27*
X36102580Y-160705880D03*
X34002580Y-160705880D03*
D18*
X40640580Y-167964880D03*
X40640580Y-170464880D03*
D28*
X24757580Y-169682380D03*
X24757580Y-175082380D03*
D29*
X15181780Y-169268880D03*
X15181780Y-175368880D03*
D12*
X17860580Y-155371880D03*
X15160580Y-155371880D03*
D27*
X36102580Y-155371880D03*
X34002580Y-155371880D03*
D11*
X27920580Y-152577880D03*
X25420580Y-152577880D03*
D30*
X25745580Y-155371880D03*
X27595580Y-155371880D03*
D31*
X19042580Y-117010380D03*
X19042580Y-113410380D03*
D32*
X24630580Y-115994380D03*
X26330580Y-115994380D03*
X28030580Y-115994380D03*
X29730580Y-115994380D03*
X31430580Y-115994380D03*
D33*
X30805580Y-104419380D03*
X25255580Y-109269380D03*
X25255580Y-104419380D03*
X30805580Y-109269380D03*
D28*
X29710580Y-122946380D03*
X29710580Y-128346380D03*
D27*
X39083180Y-117170780D03*
X41183180Y-117170780D03*
D34*
X36152580Y-149783880D03*
X33952580Y-149783880D03*
D28*
X23360580Y-132090380D03*
X23360580Y-137490380D03*
X6850580Y-132250380D03*
X6850580Y-137650380D03*
D35*
X14724580Y-138194380D03*
D36*
X14724580Y-131894380D03*
X12424580Y-131894380D03*
X17024580Y-131894380D03*
D12*
X15152580Y-163809880D03*
X17852580Y-163809880D03*
D31*
X9906580Y-162270380D03*
X9906580Y-165870380D03*
D37*
X4356580Y-165620380D03*
X4856580Y-165620380D03*
X5356580Y-165620380D03*
X5856580Y-165620380D03*
X5856580Y-162520380D03*
X5356580Y-162520380D03*
X4856580Y-162520380D03*
X4356580Y-162520380D03*
D12*
X17860580Y-160896500D03*
X15160580Y-160896500D03*
X17860580Y-152577880D03*
X15160580Y-152577880D03*
X17860580Y-158165880D03*
X15160580Y-158165880D03*
X18159920Y-144703880D03*
X15459920Y-144703880D03*
D38*
X11146580Y-142670380D03*
X8606580Y-158140380D03*
X11146580Y-158140380D03*
X6066580Y-158140380D03*
X3526580Y-158140380D03*
X8606580Y-142670380D03*
X6066580Y-142670380D03*
X3526580Y-142670380D03*
D20*
X15585980Y-150183680D03*
X17485980Y-150183680D03*
X16535980Y-148183680D03*
D12*
X18159920Y-142158920D03*
X15459920Y-142158920D03*
D16*
X22344580Y-184621380D03*
X22344580Y-187321380D03*
D11*
X28047580Y-158165880D03*
X25547580Y-158165880D03*
X36302580Y-158165880D03*
X33802580Y-158165880D03*
D19*
X27347580Y-163807340D03*
X26247580Y-163807340D03*
D12*
X28147580Y-160896500D03*
X25447580Y-160896500D03*
D18*
X50727896Y-162723446D03*
X50727896Y-165223446D03*
D16*
X53416780Y-178111240D03*
X53416780Y-180811240D03*
X55961860Y-180821400D03*
X55961860Y-178121400D03*
D18*
X41275580Y-191205880D03*
X41275580Y-193705880D03*
X68072580Y-191205880D03*
X68072580Y-193705880D03*
D16*
X53340580Y-193805880D03*
X53340580Y-191105880D03*
X55880580Y-193805880D03*
X55880580Y-191105880D03*
D18*
X70485580Y-191205880D03*
X70485580Y-193705880D03*
D16*
X83185580Y-193805880D03*
X83185580Y-191105880D03*
D11*
X136487420Y-152756120D03*
X133987420Y-152756120D03*
D12*
X136587420Y-165672020D03*
X133887420Y-165672020D03*
X119553820Y-150584420D03*
X122253820Y-150584420D03*
D11*
X136487420Y-155296120D03*
X133987420Y-155296120D03*
D12*
X136579800Y-146152000D03*
X133879800Y-146152000D03*
D13*
X118203820Y-141491220D03*
X118203820Y-142761220D03*
X118203820Y-144031220D03*
X118203820Y-145301220D03*
X123603820Y-145301220D03*
X123603820Y-144031220D03*
X123603820Y-142761220D03*
X123603820Y-141491220D03*
D11*
X119653820Y-153124420D03*
X122153820Y-153124420D03*
D12*
X119553820Y-148000120D03*
X122253820Y-148000120D03*
D11*
X163697420Y-152756120D03*
X166197420Y-152756120D03*
D12*
X163597420Y-147422120D03*
X166297420Y-147422120D03*
D14*
X157899420Y-156000120D03*
X157899420Y-155500120D03*
X157899420Y-155000120D03*
X157899420Y-154500120D03*
X157899420Y-154000120D03*
X157899420Y-153500120D03*
X157899420Y-153000120D03*
X157899420Y-152500120D03*
X157899420Y-152000120D03*
X157899420Y-151500120D03*
X157899420Y-151000120D03*
X157899420Y-150500120D03*
X157899420Y-150000120D03*
X157899420Y-149500120D03*
X157899420Y-149000120D03*
X157899420Y-148500120D03*
X157899420Y-148000120D03*
X157899420Y-147500120D03*
X157899420Y-147000120D03*
X157899420Y-146500120D03*
X157899420Y-146000120D03*
X157899420Y-145500120D03*
X157899420Y-145000120D03*
X157899420Y-144500120D03*
X157899420Y-144000120D03*
D15*
X155999420Y-142100120D03*
X155499420Y-142100120D03*
X154999420Y-142100120D03*
X154499420Y-142100120D03*
X153999420Y-142100120D03*
X153499420Y-142100120D03*
X152999420Y-142100120D03*
X152499420Y-142100120D03*
X151999420Y-142100120D03*
X151499420Y-142100120D03*
X150999420Y-142100120D03*
X150499420Y-142100120D03*
X149999420Y-142100120D03*
X149499420Y-142100120D03*
X148999420Y-142100120D03*
X148499420Y-142100120D03*
X147999420Y-142100120D03*
X147499420Y-142100120D03*
X146999420Y-142100120D03*
X146499420Y-142100120D03*
X145999420Y-142100120D03*
X145499420Y-142100120D03*
X144999420Y-142100120D03*
X144499420Y-142100120D03*
X143999420Y-142100120D03*
D14*
X142099420Y-144000120D03*
X142099420Y-144500120D03*
X142099420Y-145000120D03*
X142099420Y-145500120D03*
X142099420Y-146000120D03*
X142099420Y-146500120D03*
X142099420Y-147000120D03*
X142099420Y-147500120D03*
X142099420Y-148000120D03*
X142099420Y-148500120D03*
X142099420Y-149000120D03*
X142099420Y-149500120D03*
X142099420Y-150000120D03*
X142099420Y-150500120D03*
X142099420Y-151000120D03*
X142099420Y-151500120D03*
X142099420Y-152000120D03*
X142099420Y-152500120D03*
X142099420Y-153000120D03*
X142099420Y-153500120D03*
X142099420Y-154000120D03*
X142099420Y-154500120D03*
X142099420Y-155000120D03*
X142099420Y-155500120D03*
X142099420Y-156000120D03*
D15*
X143999420Y-157900120D03*
X144499420Y-157900120D03*
X144999420Y-157900120D03*
X145499420Y-157900120D03*
X145999420Y-157900120D03*
X146499420Y-157900120D03*
X146999420Y-157900120D03*
X147499420Y-157900120D03*
X147999420Y-157900120D03*
X148499420Y-157900120D03*
X148999420Y-157900120D03*
X149499420Y-157900120D03*
X149999420Y-157900120D03*
X150499420Y-157900120D03*
X150999420Y-157900120D03*
X151499420Y-157900120D03*
X151999420Y-157900120D03*
X152499420Y-157900120D03*
X152999420Y-157900120D03*
X153499420Y-157900120D03*
X153999420Y-157900120D03*
X154499420Y-157900120D03*
X154999420Y-157900120D03*
X155499420Y-157900120D03*
X155999420Y-157900120D03*
D11*
X163697420Y-155296120D03*
X166197420Y-155296120D03*
D16*
X159159140Y-164786820D03*
X159159140Y-162086820D03*
X155623080Y-164786820D03*
X155623080Y-162086820D03*
D17*
X153316800Y-162086820D03*
X152366800Y-162086820D03*
X151416800Y-162086820D03*
X151416800Y-164786820D03*
X153316800Y-164786820D03*
D18*
X146722920Y-137282760D03*
X146722920Y-134782760D03*
D16*
X142087420Y-131500120D03*
X142087420Y-128800120D03*
D19*
X134687420Y-143612000D03*
X135787420Y-143612000D03*
D16*
X134213800Y-119211500D03*
X134213800Y-121911500D03*
D20*
X151424800Y-170570800D03*
X153324800Y-170570800D03*
X152374800Y-168570800D03*
D18*
X146722920Y-162301120D03*
X146722920Y-164801120D03*
X149262920Y-162301120D03*
X149262920Y-164801120D03*
D16*
X149262920Y-174680120D03*
X149262920Y-171980120D03*
X146722920Y-174680120D03*
X146722920Y-171980120D03*
D21*
X162893420Y-191829620D03*
X156893420Y-191829620D03*
D12*
X133887420Y-177274620D03*
X136587420Y-177274620D03*
D16*
X133197420Y-189793120D03*
X133197420Y-187093120D03*
X130657420Y-189793120D03*
X130657420Y-187093120D03*
X148437420Y-189793120D03*
X148437420Y-187093120D03*
D11*
X121239420Y-191745120D03*
X118739420Y-191745120D03*
D22*
X122021420Y-194920120D03*
X118021420Y-194920120D03*
D23*
X128303420Y-182303120D03*
X128303420Y-179803120D03*
X128303420Y-177303120D03*
X128303420Y-174803120D03*
X128303420Y-172303120D03*
X128303420Y-169803120D03*
X128303420Y-167373120D03*
X128303420Y-165673120D03*
X128303420Y-184803120D03*
D24*
X128303420Y-164373120D03*
X128303420Y-163173120D03*
D25*
X126503420Y-186878120D03*
X105003420Y-189078120D03*
X105003420Y-161778120D03*
X126503420Y-161778120D03*
D18*
X168503420Y-129535120D03*
X168503420Y-132035120D03*
D26*
X165831420Y-129635120D03*
X162031420Y-129635120D03*
X162031420Y-131935120D03*
X165831420Y-131935120D03*
D27*
X163897420Y-139294120D03*
X165997420Y-139294120D03*
D18*
X159359420Y-132035120D03*
X159359420Y-129535120D03*
D28*
X175242420Y-130317620D03*
X175242420Y-124917620D03*
D29*
X184818220Y-130731120D03*
X184818220Y-124631120D03*
D12*
X182139420Y-144628120D03*
X184839420Y-144628120D03*
D27*
X163897420Y-144628120D03*
X165997420Y-144628120D03*
D11*
X172079420Y-147422120D03*
X174579420Y-147422120D03*
D30*
X174254420Y-144628120D03*
X172404420Y-144628120D03*
D31*
X180957420Y-182989620D03*
X180957420Y-186589620D03*
D32*
X175369420Y-184005620D03*
X173669420Y-184005620D03*
X171969420Y-184005620D03*
X170269420Y-184005620D03*
X168569420Y-184005620D03*
D33*
X169194420Y-195580620D03*
X174744420Y-190730620D03*
X174744420Y-195580620D03*
X169194420Y-190730620D03*
D28*
X170289420Y-177053620D03*
X170289420Y-171653620D03*
D27*
X160916820Y-182829220D03*
X158816820Y-182829220D03*
D34*
X163847420Y-150216120D03*
X166047420Y-150216120D03*
D28*
X176639420Y-167909620D03*
X176639420Y-162509620D03*
X193149420Y-167749620D03*
X193149420Y-162349620D03*
D35*
X185275420Y-161805620D03*
D36*
X185275420Y-168105620D03*
X187575420Y-168105620D03*
X182975420Y-168105620D03*
D12*
X184847420Y-136190120D03*
X182147420Y-136190120D03*
D31*
X190093420Y-137729620D03*
X190093420Y-134129620D03*
D37*
X195643420Y-134379620D03*
X195143420Y-134379620D03*
X194643420Y-134379620D03*
X194143420Y-134379620D03*
X194143420Y-137479620D03*
X194643420Y-137479620D03*
X195143420Y-137479620D03*
X195643420Y-137479620D03*
D12*
X182139420Y-139103500D03*
X184839420Y-139103500D03*
X182139420Y-147422120D03*
X184839420Y-147422120D03*
X182139420Y-141834120D03*
X184839420Y-141834120D03*
X181840080Y-155296120D03*
X184540080Y-155296120D03*
D38*
X188853420Y-157329620D03*
X191393420Y-141859620D03*
X188853420Y-141859620D03*
X193933420Y-141859620D03*
X196473420Y-141859620D03*
X191393420Y-157329620D03*
X193933420Y-157329620D03*
X196473420Y-157329620D03*
D20*
X184414020Y-149816320D03*
X182514020Y-149816320D03*
X183464020Y-151816320D03*
D12*
X181840080Y-157841080D03*
X184540080Y-157841080D03*
D16*
X177655420Y-115378620D03*
X177655420Y-112678620D03*
D11*
X171952420Y-141834120D03*
X174452420Y-141834120D03*
X163697420Y-141834120D03*
X166197420Y-141834120D03*
D19*
X172652420Y-136192660D03*
X173752420Y-136192660D03*
D12*
X171852420Y-139103500D03*
X174552420Y-139103500D03*
D18*
X149272104Y-137276554D03*
X149272104Y-134776554D03*
D16*
X146583220Y-121888760D03*
X146583220Y-119188760D03*
X144038140Y-119178600D03*
X144038140Y-121878600D03*
D18*
X158724420Y-108794120D03*
X158724420Y-106294120D03*
X131927420Y-108794120D03*
X131927420Y-106294120D03*
D16*
X146659420Y-106194120D03*
X146659420Y-108894120D03*
X144119420Y-106194120D03*
X144119420Y-108894120D03*
D18*
X129514420Y-108794120D03*
X129514420Y-106294120D03*
D16*
X116814420Y-106194120D03*
X116814420Y-108894120D03*
D11*
X136487420Y-52756120D03*
X133987420Y-52756120D03*
D12*
X136587420Y-65672020D03*
X133887420Y-65672020D03*
X119553820Y-50584420D03*
X122253820Y-50584420D03*
D11*
X136487420Y-55296120D03*
X133987420Y-55296120D03*
D12*
X136579800Y-46152000D03*
X133879800Y-46152000D03*
D13*
X118203820Y-41491220D03*
X118203820Y-42761220D03*
X118203820Y-44031220D03*
X118203820Y-45301220D03*
X123603820Y-45301220D03*
X123603820Y-44031220D03*
X123603820Y-42761220D03*
X123603820Y-41491220D03*
D11*
X119653820Y-53124420D03*
X122153820Y-53124420D03*
D12*
X119553820Y-48000120D03*
X122253820Y-48000120D03*
D11*
X163697420Y-52756120D03*
X166197420Y-52756120D03*
D12*
X163597420Y-47422120D03*
X166297420Y-47422120D03*
D14*
X157899420Y-56000120D03*
X157899420Y-55500120D03*
X157899420Y-55000120D03*
X157899420Y-54500120D03*
X157899420Y-54000120D03*
X157899420Y-53500120D03*
X157899420Y-53000120D03*
X157899420Y-52500120D03*
X157899420Y-52000120D03*
X157899420Y-51500120D03*
X157899420Y-51000120D03*
X157899420Y-50500120D03*
X157899420Y-50000120D03*
X157899420Y-49500120D03*
X157899420Y-49000120D03*
X157899420Y-48500120D03*
X157899420Y-48000120D03*
X157899420Y-47500120D03*
X157899420Y-47000120D03*
X157899420Y-46500120D03*
X157899420Y-46000120D03*
X157899420Y-45500120D03*
X157899420Y-45000120D03*
X157899420Y-44500120D03*
X157899420Y-44000120D03*
D15*
X155999420Y-42100120D03*
X155499420Y-42100120D03*
X154999420Y-42100120D03*
X154499420Y-42100120D03*
X153999420Y-42100120D03*
X153499420Y-42100120D03*
X152999420Y-42100120D03*
X152499420Y-42100120D03*
X151999420Y-42100120D03*
X151499420Y-42100120D03*
X150999420Y-42100120D03*
X150499420Y-42100120D03*
X149999420Y-42100120D03*
X149499420Y-42100120D03*
X148999420Y-42100120D03*
X148499420Y-42100120D03*
X147999420Y-42100120D03*
X147499420Y-42100120D03*
X146999420Y-42100120D03*
X146499420Y-42100120D03*
X145999420Y-42100120D03*
X145499420Y-42100120D03*
X144999420Y-42100120D03*
X144499420Y-42100120D03*
X143999420Y-42100120D03*
D14*
X142099420Y-44000120D03*
X142099420Y-44500120D03*
X142099420Y-45000120D03*
X142099420Y-45500120D03*
X142099420Y-46000120D03*
X142099420Y-46500120D03*
X142099420Y-47000120D03*
X142099420Y-47500120D03*
X142099420Y-48000120D03*
X142099420Y-48500120D03*
X142099420Y-49000120D03*
X142099420Y-49500120D03*
X142099420Y-50000120D03*
X142099420Y-50500120D03*
X142099420Y-51000120D03*
X142099420Y-51500120D03*
X142099420Y-52000120D03*
X142099420Y-52500120D03*
X142099420Y-53000120D03*
X142099420Y-53500120D03*
X142099420Y-54000120D03*
X142099420Y-54500120D03*
X142099420Y-55000120D03*
X142099420Y-55500120D03*
X142099420Y-56000120D03*
D15*
X143999420Y-57900120D03*
X144499420Y-57900120D03*
X144999420Y-57900120D03*
X145499420Y-57900120D03*
X145999420Y-57900120D03*
X146499420Y-57900120D03*
X146999420Y-57900120D03*
X147499420Y-57900120D03*
X147999420Y-57900120D03*
X148499420Y-57900120D03*
X148999420Y-57900120D03*
X149499420Y-57900120D03*
X149999420Y-57900120D03*
X150499420Y-57900120D03*
X150999420Y-57900120D03*
X151499420Y-57900120D03*
X151999420Y-57900120D03*
X152499420Y-57900120D03*
X152999420Y-57900120D03*
X153499420Y-57900120D03*
X153999420Y-57900120D03*
X154499420Y-57900120D03*
X154999420Y-57900120D03*
X155499420Y-57900120D03*
X155999420Y-57900120D03*
D11*
X163697420Y-55296120D03*
X166197420Y-55296120D03*
D16*
X159159140Y-64786820D03*
X159159140Y-62086820D03*
X155623080Y-64786820D03*
X155623080Y-62086820D03*
D17*
X153316800Y-62086820D03*
X152366800Y-62086820D03*
X151416800Y-62086820D03*
X151416800Y-64786820D03*
X153316800Y-64786820D03*
D18*
X146722920Y-37282760D03*
X146722920Y-34782760D03*
D16*
X142087420Y-31500120D03*
X142087420Y-28800120D03*
D19*
X134687420Y-43612000D03*
X135787420Y-43612000D03*
D16*
X134213800Y-19211500D03*
X134213800Y-21911500D03*
D20*
X151424800Y-70570800D03*
X153324800Y-70570800D03*
X152374800Y-68570800D03*
D18*
X146722920Y-62301120D03*
X146722920Y-64801120D03*
X149262920Y-62301120D03*
X149262920Y-64801120D03*
D16*
X149262920Y-74680120D03*
X149262920Y-71980120D03*
X146722920Y-74680120D03*
X146722920Y-71980120D03*
D21*
X162893420Y-91829620D03*
X156893420Y-91829620D03*
D12*
X133887420Y-77274620D03*
X136587420Y-77274620D03*
D16*
X133197420Y-89793120D03*
X133197420Y-87093120D03*
X130657420Y-89793120D03*
X130657420Y-87093120D03*
X148437420Y-89793120D03*
X148437420Y-87093120D03*
D11*
X121239420Y-91745120D03*
X118739420Y-91745120D03*
D22*
X122021420Y-94920120D03*
X118021420Y-94920120D03*
D23*
X128303420Y-82303120D03*
X128303420Y-79803120D03*
X128303420Y-77303120D03*
X128303420Y-74803120D03*
X128303420Y-72303120D03*
X128303420Y-69803120D03*
X128303420Y-67373120D03*
X128303420Y-65673120D03*
X128303420Y-84803120D03*
D24*
X128303420Y-64373120D03*
X128303420Y-63173120D03*
D25*
X126503420Y-86878120D03*
X105003420Y-89078120D03*
X105003420Y-61778120D03*
X126503420Y-61778120D03*
D18*
X168503420Y-29535120D03*
X168503420Y-32035120D03*
D26*
X165831420Y-29635120D03*
X162031420Y-29635120D03*
X162031420Y-31935120D03*
X165831420Y-31935120D03*
D27*
X163897420Y-39294120D03*
X165997420Y-39294120D03*
D18*
X159359420Y-32035120D03*
X159359420Y-29535120D03*
D28*
X175242420Y-30317620D03*
X175242420Y-24917620D03*
D29*
X184818220Y-30731120D03*
X184818220Y-24631120D03*
D12*
X182139420Y-44628120D03*
X184839420Y-44628120D03*
D27*
X163897420Y-44628120D03*
X165997420Y-44628120D03*
D11*
X172079420Y-47422120D03*
X174579420Y-47422120D03*
D30*
X174254420Y-44628120D03*
X172404420Y-44628120D03*
D31*
X180957420Y-82989620D03*
X180957420Y-86589620D03*
D32*
X175369420Y-84005620D03*
X173669420Y-84005620D03*
X171969420Y-84005620D03*
X170269420Y-84005620D03*
X168569420Y-84005620D03*
D33*
X169194420Y-95580620D03*
X174744420Y-90730620D03*
X174744420Y-95580620D03*
X169194420Y-90730620D03*
D28*
X170289420Y-77053620D03*
X170289420Y-71653620D03*
D27*
X160916820Y-82829220D03*
X158816820Y-82829220D03*
D34*
X163847420Y-50216120D03*
X166047420Y-50216120D03*
D28*
X176639420Y-67909620D03*
X176639420Y-62509620D03*
X193149420Y-67749620D03*
X193149420Y-62349620D03*
D35*
X185275420Y-61805620D03*
D36*
X185275420Y-68105620D03*
X187575420Y-68105620D03*
X182975420Y-68105620D03*
D12*
X184847420Y-36190120D03*
X182147420Y-36190120D03*
D31*
X190093420Y-37729620D03*
X190093420Y-34129620D03*
D37*
X195643420Y-34379620D03*
X195143420Y-34379620D03*
X194643420Y-34379620D03*
X194143420Y-34379620D03*
X194143420Y-37479620D03*
X194643420Y-37479620D03*
X195143420Y-37479620D03*
X195643420Y-37479620D03*
D12*
X182139420Y-39103500D03*
X184839420Y-39103500D03*
X182139420Y-47422120D03*
X184839420Y-47422120D03*
X182139420Y-41834120D03*
X184839420Y-41834120D03*
X181840080Y-55296120D03*
X184540080Y-55296120D03*
D38*
X188853420Y-57329620D03*
X191393420Y-41859620D03*
X188853420Y-41859620D03*
X193933420Y-41859620D03*
X196473420Y-41859620D03*
X191393420Y-57329620D03*
X193933420Y-57329620D03*
X196473420Y-57329620D03*
D20*
X184414020Y-49816320D03*
X182514020Y-49816320D03*
X183464020Y-51816320D03*
D12*
X181840080Y-57841080D03*
X184540080Y-57841080D03*
D16*
X177655420Y-15378620D03*
X177655420Y-12678620D03*
D11*
X171952420Y-41834120D03*
X174452420Y-41834120D03*
X163697420Y-41834120D03*
X166197420Y-41834120D03*
D19*
X172652420Y-36192660D03*
X173752420Y-36192660D03*
D12*
X171852420Y-39103500D03*
X174552420Y-39103500D03*
D18*
X149272104Y-37276554D03*
X149272104Y-34776554D03*
D16*
X146583220Y-21888760D03*
X146583220Y-19188760D03*
X144038140Y-19178600D03*
X144038140Y-21878600D03*
D18*
X158724420Y-8794120D03*
X158724420Y-6294120D03*
X131927420Y-8794120D03*
X131927420Y-6294120D03*
D16*
X146659420Y-6194120D03*
X146659420Y-8894120D03*
X144119420Y-6194120D03*
X144119420Y-8894120D03*
D18*
X129514420Y-8794120D03*
X129514420Y-6294120D03*
D16*
X116814420Y-6194120D03*
X116814420Y-8894120D03*
D38*
X11146580Y-42670380D03*
X8606580Y-58140380D03*
X11146580Y-58140380D03*
X6066580Y-58140380D03*
X3526580Y-58140380D03*
X8606580Y-42670380D03*
X6066580Y-42670380D03*
X3526580Y-42670380D03*
D26*
X34168580Y-70364880D03*
X37968580Y-70364880D03*
X37968580Y-68064880D03*
X34168580Y-68064880D03*
D22*
X77978580Y-5079880D03*
X81978580Y-5079880D03*
D11*
X78760580Y-8254880D03*
X81260580Y-8254880D03*
D31*
X9906580Y-62270380D03*
X9906580Y-65870380D03*
D28*
X24757580Y-69682380D03*
X24757580Y-75082380D03*
D29*
X15181780Y-69268880D03*
X15181780Y-75368880D03*
D28*
X23360580Y-32090380D03*
X23360580Y-37490380D03*
D31*
X19042580Y-17010380D03*
X19042580Y-13410380D03*
D28*
X6850580Y-32250380D03*
X6850580Y-37650380D03*
X29710580Y-22946380D03*
X29710580Y-28346380D03*
D18*
X31496580Y-70464880D03*
X31496580Y-67964880D03*
X40640580Y-67964880D03*
X40640580Y-70464880D03*
D11*
X27920580Y-52577880D03*
X25420580Y-52577880D03*
X28047580Y-58165880D03*
X25547580Y-58165880D03*
X63512580Y-47243880D03*
X66012580Y-47243880D03*
D18*
X50727896Y-62723446D03*
X50727896Y-65223446D03*
X53277080Y-37698880D03*
X53277080Y-35198880D03*
D11*
X36302580Y-47243880D03*
X33802580Y-47243880D03*
X63512580Y-44703880D03*
X66012580Y-44703880D03*
D18*
X53277080Y-62717240D03*
X53277080Y-65217240D03*
X50737080Y-37698880D03*
X50737080Y-35198880D03*
D11*
X36302580Y-44703880D03*
X33802580Y-44703880D03*
X36302580Y-58165880D03*
X33802580Y-58165880D03*
X80346180Y-46875580D03*
X77846180Y-46875580D03*
D18*
X68072580Y-91205880D03*
X68072580Y-93705880D03*
X41275580Y-91205880D03*
X41275580Y-93705880D03*
X70485580Y-91205880D03*
X70485580Y-93705880D03*
D27*
X39083180Y-17170780D03*
X41183180Y-17170780D03*
X36102580Y-55371880D03*
X34002580Y-55371880D03*
X36102580Y-60705880D03*
X34002580Y-60705880D03*
D23*
X71696580Y-17696880D03*
X71696580Y-20196880D03*
X71696580Y-22696880D03*
X71696580Y-25196880D03*
X71696580Y-27696880D03*
X71696580Y-30196880D03*
X71696580Y-32626880D03*
X71696580Y-34326880D03*
X71696580Y-15196880D03*
D24*
X71696580Y-35626880D03*
X71696580Y-36826880D03*
D25*
X73496580Y-13121880D03*
X94996580Y-10921880D03*
X94996580Y-38221880D03*
X73496580Y-38221880D03*
D21*
X37106580Y-8170380D03*
X43106580Y-8170380D03*
D34*
X36152580Y-49783880D03*
X33952580Y-49783880D03*
D12*
X17860580Y-52577880D03*
X15160580Y-52577880D03*
D16*
X69342580Y-10206880D03*
X69342580Y-12906880D03*
D12*
X63412580Y-34327980D03*
X66112580Y-34327980D03*
D16*
X66802580Y-10206880D03*
X66802580Y-12906880D03*
D12*
X66112580Y-22725380D03*
X63412580Y-22725380D03*
X17860580Y-55371880D03*
X15160580Y-55371880D03*
X17860580Y-58165880D03*
X15160580Y-58165880D03*
X15152580Y-63809880D03*
X17852580Y-63809880D03*
X17860580Y-60896500D03*
X15160580Y-60896500D03*
D16*
X22344580Y-84621380D03*
X22344580Y-87321380D03*
X55961860Y-80821400D03*
X55961860Y-78121400D03*
X53416780Y-78111240D03*
X53416780Y-80811240D03*
X57912580Y-68499880D03*
X57912580Y-71199880D03*
X65786200Y-80788500D03*
X65786200Y-78088500D03*
X50737080Y-25319880D03*
X50737080Y-28019880D03*
X53277080Y-25319880D03*
X53277080Y-28019880D03*
X44376920Y-35213180D03*
X44376920Y-37913180D03*
X40840860Y-35213180D03*
X40840860Y-37913180D03*
D12*
X36402580Y-52577880D03*
X33702580Y-52577880D03*
D16*
X51562580Y-10206880D03*
X51562580Y-12906880D03*
D12*
X80446180Y-51999880D03*
X77746180Y-51999880D03*
X80446180Y-49415580D03*
X77746180Y-49415580D03*
X18159920Y-44703880D03*
X15459920Y-44703880D03*
X18159920Y-42158920D03*
X15459920Y-42158920D03*
D16*
X55880580Y-93805880D03*
X55880580Y-91105880D03*
X53340580Y-93805880D03*
X53340580Y-91105880D03*
X83185580Y-93805880D03*
X83185580Y-91105880D03*
D37*
X4356580Y-65620380D03*
X4856580Y-65620380D03*
X5356580Y-65620380D03*
X5856580Y-65620380D03*
X5856580Y-62520380D03*
X5356580Y-62520380D03*
X4856580Y-62520380D03*
X4356580Y-62520380D03*
D17*
X46683200Y-37913180D03*
X47633200Y-37913180D03*
X48583200Y-37913180D03*
X48583200Y-35213180D03*
X46683200Y-35213180D03*
D20*
X48575200Y-29429200D03*
X46675200Y-29429200D03*
X47625200Y-31429200D03*
D32*
X24630580Y-15994380D03*
X26330580Y-15994380D03*
X28030580Y-15994380D03*
X29730580Y-15994380D03*
X31430580Y-15994380D03*
D33*
X30805580Y-4419380D03*
X25255580Y-9269380D03*
X25255580Y-4419380D03*
X30805580Y-9269380D03*
D35*
X14724580Y-38194380D03*
D36*
X14724580Y-31894380D03*
X12424580Y-31894380D03*
X17024580Y-31894380D03*
D13*
X81796180Y-58508780D03*
X81796180Y-57238780D03*
X81796180Y-55968780D03*
X81796180Y-54698780D03*
X76396180Y-54698780D03*
X76396180Y-55968780D03*
X76396180Y-57238780D03*
X76396180Y-58508780D03*
D20*
X15585980Y-50183680D03*
X17485980Y-50183680D03*
X16535980Y-48183680D03*
D30*
X25745580Y-55371880D03*
X27595580Y-55371880D03*
D14*
X42100580Y-43999880D03*
X42100580Y-44499880D03*
X42100580Y-44999880D03*
X42100580Y-45499880D03*
X42100580Y-45999880D03*
X42100580Y-46499880D03*
X42100580Y-46999880D03*
X42100580Y-47499880D03*
X42100580Y-47999880D03*
X42100580Y-48499880D03*
X42100580Y-48999880D03*
X42100580Y-49499880D03*
X42100580Y-49999880D03*
X42100580Y-50499880D03*
X42100580Y-50999880D03*
X42100580Y-51499880D03*
X42100580Y-51999880D03*
X42100580Y-52499880D03*
X42100580Y-52999880D03*
X42100580Y-53499880D03*
X42100580Y-53999880D03*
X42100580Y-54499880D03*
X42100580Y-54999880D03*
X42100580Y-55499880D03*
X42100580Y-55999880D03*
D15*
X44000580Y-57899880D03*
X44500580Y-57899880D03*
X45000580Y-57899880D03*
X45500580Y-57899880D03*
X46000580Y-57899880D03*
X46500580Y-57899880D03*
X47000580Y-57899880D03*
X47500580Y-57899880D03*
X48000580Y-57899880D03*
X48500580Y-57899880D03*
X49000580Y-57899880D03*
X49500580Y-57899880D03*
X50000580Y-57899880D03*
X50500580Y-57899880D03*
X51000580Y-57899880D03*
X51500580Y-57899880D03*
X52000580Y-57899880D03*
X52500580Y-57899880D03*
X53000580Y-57899880D03*
X53500580Y-57899880D03*
X54000580Y-57899880D03*
X54500580Y-57899880D03*
X55000580Y-57899880D03*
X55500580Y-57899880D03*
X56000580Y-57899880D03*
D14*
X57900580Y-55999880D03*
X57900580Y-55499880D03*
X57900580Y-54999880D03*
X57900580Y-54499880D03*
X57900580Y-53999880D03*
X57900580Y-53499880D03*
X57900580Y-52999880D03*
X57900580Y-52499880D03*
X57900580Y-51999880D03*
X57900580Y-51499880D03*
X57900580Y-50999880D03*
X57900580Y-50499880D03*
X57900580Y-49999880D03*
X57900580Y-49499880D03*
X57900580Y-48999880D03*
X57900580Y-48499880D03*
X57900580Y-47999880D03*
X57900580Y-47499880D03*
X57900580Y-46999880D03*
X57900580Y-46499880D03*
X57900580Y-45999880D03*
X57900580Y-45499880D03*
X57900580Y-44999880D03*
X57900580Y-44499880D03*
X57900580Y-43999880D03*
D15*
X56000580Y-42099880D03*
X55500580Y-42099880D03*
X55000580Y-42099880D03*
X54500580Y-42099880D03*
X54000580Y-42099880D03*
X53500580Y-42099880D03*
X53000580Y-42099880D03*
X52500580Y-42099880D03*
X52000580Y-42099880D03*
X51500580Y-42099880D03*
X51000580Y-42099880D03*
X50500580Y-42099880D03*
X50000580Y-42099880D03*
X49500580Y-42099880D03*
X49000580Y-42099880D03*
X48500580Y-42099880D03*
X48000580Y-42099880D03*
X47500580Y-42099880D03*
X47000580Y-42099880D03*
X46500580Y-42099880D03*
X46000580Y-42099880D03*
X45500580Y-42099880D03*
X45000580Y-42099880D03*
X44500580Y-42099880D03*
X44000580Y-42099880D03*
D19*
X27347580Y-63807340D03*
X26247580Y-63807340D03*
X65312580Y-56388000D03*
X64212580Y-56388000D03*
D12*
X28147580Y-60896500D03*
X25447580Y-60896500D03*
X63420200Y-53848000D03*
X66120200Y-53848000D03*
M02*
