G04 #@! TF.FileFunction,Paste,Bot*
%FSLAX46Y46*%
G04 Gerber Fmt 4.6, Leading zero omitted, Abs format (unit mm)*
G04 Created by KiCad (PCBNEW 4.0.7-e2-6376~58~ubuntu16.04.1) date Sun Nov 18 23:18:58 2018*
%MOMM*%
%LPD*%
G01*
G04 APERTURE LIST*
%ADD10C,0.100000*%
%ADD11R,1.300000X1.500000*%
G04 APERTURE END LIST*
D10*
D11*
X59182580Y-110206880D03*
X59182580Y-112906880D03*
X61722580Y-110206880D03*
X61722580Y-112906880D03*
X64262580Y-110206880D03*
X64262580Y-112906880D03*
X54102580Y-110206880D03*
X54102580Y-112906880D03*
X56642580Y-110206880D03*
X56642580Y-112906880D03*
X140817420Y-189793120D03*
X140817420Y-187093120D03*
X138277420Y-189793120D03*
X138277420Y-187093120D03*
X135737420Y-189793120D03*
X135737420Y-187093120D03*
X145897420Y-189793120D03*
X145897420Y-187093120D03*
X143357420Y-189793120D03*
X143357420Y-187093120D03*
X140817420Y-89793120D03*
X140817420Y-87093120D03*
X138277420Y-89793120D03*
X138277420Y-87093120D03*
X135737420Y-89793120D03*
X135737420Y-87093120D03*
X145897420Y-89793120D03*
X145897420Y-87093120D03*
X143357420Y-89793120D03*
X143357420Y-87093120D03*
X64262580Y-10206880D03*
X64262580Y-12906880D03*
X61722580Y-10206880D03*
X61722580Y-12906880D03*
X59182580Y-10206880D03*
X59182580Y-12906880D03*
X56642580Y-10206880D03*
X56642580Y-12906880D03*
X54102580Y-10206880D03*
X54102580Y-12906880D03*
M02*
