M48
;DRILL file {KiCad 4.0.7-e2-6376~58~ubuntu16.04.1} date Sun Nov 18 23:19:11 2018
;FORMAT={-:-/ absolute / inch / decimal}
FMAT,2
INCH,TZ
T1C0.016
T2C0.024
T3C0.028
T4C0.031
T5C0.032
T6C0.035
T7C0.039
T8C0.043
T9C0.060
T10C0.073
%
G90
G05
M72
T1
X0.1814Y-1.5303
X0.1814Y-5.4673
X0.3585Y-1.5303
X0.3585Y-5.4673
X0.5355Y-2.245
X0.5355Y-6.182
X0.5505Y-1.7089
X0.5505Y-5.6459
X0.6105Y-1.832
X0.6105Y-5.769
X0.752Y-1.451
X0.752Y-5.388
X0.7524Y-1.5038
X0.7524Y-5.4408
X0.7642Y-1.5886
X0.7642Y-5.5256
X0.7849Y-1.8804
X0.7849Y-5.8174
X0.8135Y-1.5886
X0.8135Y-1.9855
X0.8135Y-5.5256
X0.8135Y-5.9225
X0.84Y-2.512
X0.84Y-6.449
X0.8592Y-1.5886
X0.8592Y-5.5256
X0.9624Y-2.2303
X0.9624Y-6.1673
X0.975Y-2.615
X0.975Y-6.552
X1.184Y-1.9602
X1.184Y-5.8972
X1.2086Y-1.8102
X1.2086Y-5.7472
X1.247Y-1.8103
X1.247Y-5.7473
X1.2483Y-2.1259
X1.2483Y-6.0629
X1.2904Y-2.47
X1.2904Y-6.407
X1.4104Y-1.6309
X1.4104Y-5.5679
X1.513Y-2.037
X1.513Y-5.974
X1.5239Y-1.6057
X1.5239Y-5.5427
X1.6421Y-2.2949
X1.6421Y-6.2319
X1.667Y-1.6609
X1.667Y-5.5979
X1.6742Y-2.2628
X1.6742Y-6.1998
X1.7322Y-1.5927
X1.7322Y-5.5297
X1.7328Y-1.0372
X1.7328Y-4.9742
X1.747Y-1.2
X1.747Y-5.137
X1.77Y-0.6916
X1.77Y-4.6286
X1.7717Y-2.378
X1.7717Y-6.315
X1.8111Y-1.5852
X1.8111Y-5.5222
X1.8277Y-0.6907
X1.8277Y-4.6277
X1.8797Y-0.6217
X1.8797Y-4.5587
X1.929Y-0.914
X1.929Y-0.9687
X1.929Y-1.0178
X1.929Y-4.851
X1.929Y-4.9057
X1.929Y-4.9548
X1.93Y-1.089
X1.93Y-5.026
X1.9767Y-1.5626
X1.9767Y-5.4996
X2.064Y-1.1905
X2.064Y-5.1275
X2.0975Y-1.1905
X2.0975Y-1.1905
X2.0975Y-1.1905
X2.0975Y-5.1275
X2.0975Y-5.1275
X2.0975Y-5.1275
X2.1305Y-1.1905
X2.1305Y-5.1275
X2.1752Y-0.6788
X2.1752Y-4.6158
X2.2181Y-2.5401
X2.2181Y-6.4771
X2.241Y-0.8947
X2.241Y-4.8317
X2.241Y-1.1437
X2.241Y-5.0807
X2.2655Y-2.2654
X2.2655Y-6.2024
X2.2907Y-2.2906
X2.2907Y-6.2276
X2.3773Y-1.891
X2.3773Y-5.828
X2.436Y-1.7195
X2.436Y-5.6565
X2.4633Y-1.2015
X2.4633Y-5.1385
X2.505Y-2.31
X2.505Y-6.247
X2.5226Y-1.2015
X2.5226Y-5.1385
X2.5758Y-1.2015
X2.5758Y-5.1385
X2.7041Y-0.9443
X2.7041Y-0.9921
X2.7041Y-1.0407
X2.7041Y-4.8813
X2.7041Y-4.9291
X2.7041Y-4.9777
X2.7393Y-0.9921
X2.7393Y-4.9291
X2.8198Y-0.1355
X2.8198Y-0.1788
X2.8198Y-0.2224
X2.8198Y-4.0725
X2.8198Y-4.1158
X2.8198Y-4.1594
X2.9097Y-1.9447
X2.9097Y-2.1447
X2.9097Y-5.8817
X2.9097Y-6.0817
X3.1891Y-2.3979
X3.1891Y-6.3349
X3.4035Y-0.2573
X3.4035Y-4.1943
X3.4297Y-1.6497
X3.4297Y-5.5867
X3.4453Y-0.2573
X3.4453Y-4.1943
X4.4287Y-3.6797
X4.4287Y-7.6167
X4.4443Y-2.2873
X4.4443Y-6.2243
X4.4705Y-3.6797
X4.4705Y-7.6167
X4.6849Y-1.5391
X4.6849Y-5.4761
X4.9643Y-1.7923
X4.9643Y-1.9923
X4.9643Y-5.7293
X4.9643Y-5.9293
X5.0542Y-3.7146
X5.0542Y-3.7582
X5.0542Y-3.8015
X5.0542Y-7.6516
X5.0542Y-7.6952
X5.0542Y-7.7385
X5.1347Y-2.9449
X5.1347Y-6.8819
X5.1699Y-2.8963
X5.1699Y-2.9449
X5.1699Y-2.9927
X5.1699Y-6.8333
X5.1699Y-6.8819
X5.1699Y-6.9297
X5.2982Y-2.7355
X5.2982Y-6.6725
X5.3514Y-2.7355
X5.3514Y-6.6725
X5.369Y-1.627
X5.369Y-5.564
X5.4107Y-2.7355
X5.4107Y-6.6725
X5.438Y-2.2175
X5.438Y-6.1545
X5.4967Y-2.046
X5.4967Y-5.983
X5.5833Y-1.6464
X5.5833Y-5.5834
X5.6085Y-1.6716
X5.6085Y-5.6086
X5.633Y-2.7933
X5.633Y-6.7303
X5.633Y-3.0423
X5.633Y-6.9793
X5.6559Y-1.3969
X5.6559Y-5.3339
X5.6988Y-3.2582
X5.6988Y-7.1952
X5.7435Y-2.7465
X5.7435Y-6.6835
X5.7765Y-2.7465
X5.7765Y-2.7465
X5.7765Y-2.7465
X5.7765Y-6.6835
X5.7765Y-6.6835
X5.7765Y-6.6835
X5.81Y-2.7465
X5.81Y-6.6835
X5.8973Y-2.3744
X5.8973Y-6.3114
X5.944Y-2.848
X5.944Y-6.785
X5.945Y-2.9192
X5.945Y-2.9683
X5.945Y-3.023
X5.945Y-6.8562
X5.945Y-6.9053
X5.945Y-6.96
X5.9943Y-3.3153
X5.9943Y-7.2523
X6.0463Y-3.2463
X6.0463Y-7.1833
X6.0629Y-2.3518
X6.0629Y-6.2888
X6.1023Y-1.559
X6.1023Y-5.496
X6.104Y-3.2454
X6.104Y-7.1824
X6.127Y-2.737
X6.127Y-6.674
X6.1412Y-2.8998
X6.1412Y-6.8368
X6.1418Y-2.3443
X6.1418Y-6.2813
X6.1998Y-1.6742
X6.1998Y-5.6112
X6.207Y-2.2761
X6.207Y-6.2131
X6.2319Y-1.6421
X6.2319Y-5.5791
X6.3501Y-2.3313
X6.3501Y-6.2683
X6.361Y-1.9
X6.361Y-5.837
X6.4636Y-2.3061
X6.4636Y-6.2431
X6.5836Y-1.467
X6.5836Y-5.404
X6.6257Y-1.8111
X6.6257Y-5.7481
X6.627Y-2.1267
X6.627Y-6.0637
X6.6654Y-2.1268
X6.6654Y-6.0638
X6.69Y-1.9768
X6.69Y-5.9138
X6.899Y-1.322
X6.899Y-5.259
X6.9116Y-1.7067
X6.9116Y-5.6437
X7.0148Y-2.3484
X7.0148Y-6.2854
X7.034Y-1.425
X7.034Y-5.362
X7.0605Y-1.9515
X7.0605Y-2.3484
X7.0605Y-5.8885
X7.0605Y-6.2854
X7.0891Y-2.0566
X7.0891Y-5.9936
X7.1098Y-2.3484
X7.1098Y-6.2854
X7.1216Y-2.4332
X7.1216Y-6.3702
X7.122Y-2.486
X7.122Y-6.423
X7.2635Y-2.105
X7.2635Y-6.042
X7.3235Y-2.2281
X7.3235Y-6.1651
X7.3385Y-1.692
X7.3385Y-5.629
X7.5155Y-2.4067
X7.5155Y-6.3437
X7.6927Y-2.4067
X7.6927Y-6.3437
T2
X1.8349Y-3.1285
X1.8349Y-7.0655
X1.8849Y-3.0785
X1.8849Y-3.1785
X1.8849Y-7.0155
X1.8849Y-7.1155
X5.9891Y-0.7585
X5.9891Y-0.8585
X5.9891Y-4.6955
X5.9891Y-4.7955
X6.0391Y-0.8085
X6.0391Y-4.7455
T3
X1.1097Y-1.6547
X1.1097Y-1.7547
X1.1097Y-1.8547
X1.1097Y-1.9547
X1.1097Y-5.5917
X1.1097Y-5.6917
X1.1097Y-5.7917
X1.1097Y-5.8917
X1.579Y-1.01
X1.579Y-1.11
X1.579Y-4.947
X1.579Y-5.047
X2.3697Y-0.7447
X2.3697Y-0.8447
X2.3697Y-0.9447
X2.3697Y-1.0447
X2.3697Y-4.6817
X2.3697Y-4.7817
X2.3697Y-4.8817
X2.3697Y-4.9817
X2.3825Y-2.7645
X2.3825Y-6.7015
X2.4825Y-2.7645
X2.4825Y-6.7015
X3.6917Y-2.3197
X3.6917Y-2.4197
X3.6917Y-2.5197
X3.6917Y-6.2567
X3.6917Y-6.3567
X3.6917Y-6.4567
X3.692Y-2.2197
X3.692Y-6.1567
X4.182Y-1.7173
X4.182Y-5.6543
X4.1823Y-1.4173
X4.1823Y-1.5173
X4.1823Y-1.6173
X4.1823Y-5.3543
X4.1823Y-5.4543
X4.1823Y-5.5543
X5.3915Y-1.1725
X5.3915Y-5.1095
X5.4915Y-1.1725
X5.4915Y-5.1095
X5.5043Y-2.8923
X5.5043Y-2.9923
X5.5043Y-3.0923
X5.5043Y-3.1923
X5.5043Y-6.8293
X5.5043Y-6.9293
X5.5043Y-7.0293
X5.5043Y-7.1293
X6.295Y-2.827
X6.295Y-2.927
X6.295Y-6.764
X6.295Y-6.864
X6.7643Y-1.9823
X6.7643Y-2.0823
X6.7643Y-2.1823
X6.7643Y-2.2823
X6.7643Y-5.9193
X6.7643Y-6.0193
X6.7643Y-6.1193
X6.7643Y-6.2193
T4
X0.5097Y-3.2297
X0.5097Y-3.5297
X0.5097Y-7.1667
X0.5097Y-7.4667
X0.6097Y-3.2297
X0.6097Y-3.5297
X0.6097Y-7.1667
X0.6097Y-7.4667
X0.7097Y-3.2297
X0.7097Y-3.5297
X0.7097Y-7.1667
X0.7097Y-7.4667
X2.92Y-3.34
X2.92Y-7.277
X3.32Y-3.34
X3.32Y-7.277
X3.4646Y-3.5402
X3.4646Y-3.6402
X3.4646Y-3.7402
X3.4646Y-7.4772
X3.4646Y-7.5772
X3.4646Y-7.6772
X4.4094Y-0.1969
X4.4094Y-0.2969
X4.4094Y-0.3969
X4.4094Y-4.1339
X4.4094Y-4.2339
X4.4094Y-4.3339
X4.554Y-0.597
X4.554Y-4.534
X4.954Y-0.597
X4.954Y-4.534
X7.1643Y-0.4073
X7.1643Y-0.7073
X7.1643Y-4.3443
X7.1643Y-4.6443
X7.2643Y-0.4073
X7.2643Y-0.7073
X7.2643Y-4.3443
X7.2643Y-4.6443
X7.3643Y-0.4073
X7.3643Y-0.7073
X7.3643Y-4.3443
X7.3643Y-4.6443
T5
X1.7101Y-3.5402
X1.7101Y-3.7402
X1.7101Y-7.4772
X1.7101Y-7.6772
X2.0101Y-3.5402
X2.0101Y-3.7402
X2.0101Y-7.4772
X2.0101Y-7.6772
X2.2835Y-3.5402
X2.2835Y-3.7402
X2.2835Y-7.4772
X2.2835Y-7.6772
X2.5835Y-3.5402
X2.5835Y-3.7402
X2.5835Y-7.4772
X2.5835Y-7.6772
X2.874Y-3.5402
X2.874Y-3.7402
X2.874Y-7.4772
X2.874Y-7.6772
X3.174Y-3.5402
X3.174Y-3.7402
X3.174Y-7.4772
X3.174Y-7.6772
X4.7Y-0.1969
X4.7Y-0.3969
X4.7Y-4.1339
X4.7Y-4.3339
X5.Y-0.1969
X5.Y-0.3969
X5.Y-4.1339
X5.Y-4.3339
X5.2905Y-0.1969
X5.2905Y-0.3969
X5.2905Y-4.1339
X5.2905Y-4.3339
X5.5905Y-0.1969
X5.5905Y-0.3969
X5.5905Y-4.1339
X5.5905Y-4.3339
X5.8639Y-0.1969
X5.8639Y-0.3969
X5.8639Y-4.1339
X5.8639Y-4.3339
X6.1639Y-0.1969
X6.1639Y-0.3969
X6.1639Y-4.1339
X6.1639Y-4.3339
T6
X1.975Y-2.775
X1.975Y-2.875
X1.975Y-6.712
X1.975Y-6.812
X5.899Y-1.062
X5.899Y-1.162
X5.899Y-4.999
X5.899Y-5.099
T7
X0.469Y-3.7399
X0.469Y-7.6769
X0.569Y-3.7399
X0.569Y-7.6769
X0.669Y-3.7399
X0.669Y-7.6769
X0.9414Y-3.7399
X0.9414Y-7.6769
X1.0414Y-3.7399
X1.0414Y-7.6769
X1.1414Y-3.7399
X1.1414Y-7.6769
X1.3674Y-3.1255
X1.3674Y-3.5193
X1.3674Y-7.0626
X1.3674Y-7.4563
X1.4609Y-0.3217
X1.4609Y-4.2587
X1.4934Y-3.3224
X1.4934Y-7.2594
X1.53Y-0.815
X1.53Y-4.752
X1.63Y-0.815
X1.63Y-4.752
X1.6971Y-0.3217
X1.6971Y-4.2587
X1.9685Y-0.1968
X1.9685Y-4.1339
X2.0685Y-0.1968
X2.0685Y-4.1339
X2.1685Y-0.1968
X2.1685Y-4.1339
X2.2685Y-0.1968
X2.2685Y-4.1339
X2.3685Y-0.1968
X2.3685Y-4.1339
X2.4685Y-0.1968
X2.4685Y-4.1339
X2.5685Y-0.1968
X2.5685Y-4.1339
X2.6685Y-0.1968
X2.6685Y-4.1339
X2.7139Y-2.4863
X2.7139Y-2.5863
X2.7139Y-3.0783
X2.7139Y-3.1783
X2.7139Y-6.4233
X2.7139Y-6.5233
X2.7139Y-7.0153
X2.7139Y-7.1153
X2.9685Y-2.6772
X2.9685Y-6.6142
X3.2677Y-2.6772
X3.2677Y-6.6142
X3.5597Y-2.1197
X3.5597Y-2.2197
X3.5597Y-2.3197
X3.5597Y-2.4197
X3.5597Y-2.5197
X3.5597Y-2.6197
X3.5597Y-2.7197
X3.5597Y-2.8197
X3.5597Y-6.0567
X3.5597Y-6.1567
X3.5597Y-6.2567
X3.5597Y-6.3567
X3.5597Y-6.4567
X3.5597Y-6.5567
X3.5597Y-6.6567
X3.5597Y-6.7567
X4.3143Y-1.1173
X4.3143Y-1.2173
X4.3143Y-1.3173
X4.3143Y-1.4173
X4.3143Y-1.5173
X4.3143Y-1.6173
X4.3143Y-1.7173
X4.3143Y-1.8173
X4.3143Y-5.0543
X4.3143Y-5.1543
X4.3143Y-5.2543
X4.3143Y-5.3543
X4.3143Y-5.4543
X4.3143Y-5.5543
X4.3143Y-5.6543
X4.3143Y-5.7543
X4.6063Y-1.2598
X4.6063Y-5.1969
X4.9055Y-1.2598
X4.9055Y-5.1969
X5.1601Y-0.7587
X5.1601Y-0.8587
X5.1601Y-1.3507
X5.1601Y-1.4507
X5.1601Y-4.6957
X5.1601Y-4.7957
X5.1601Y-5.2877
X5.1601Y-5.3877
X5.2055Y-3.7402
X5.2055Y-7.6772
X5.3055Y-3.7402
X5.3055Y-7.6772
X5.4055Y-3.7402
X5.4055Y-7.6772
X5.5055Y-3.7402
X5.5055Y-7.6772
X5.6055Y-3.7402
X5.6055Y-7.6772
X5.7055Y-3.7402
X5.7055Y-7.6772
X5.8055Y-3.7402
X5.8055Y-7.6772
X5.9055Y-3.7402
X5.9055Y-7.6772
X6.1769Y-3.6153
X6.1769Y-7.5523
X6.244Y-3.122
X6.244Y-7.059
X6.344Y-3.122
X6.344Y-7.059
X6.3806Y-0.6146
X6.3806Y-4.5516
X6.4131Y-3.6153
X6.4131Y-7.5523
X6.5066Y-0.4178
X6.5066Y-0.8115
X6.5066Y-4.3548
X6.5066Y-4.7485
X6.7326Y-0.1972
X6.7326Y-4.1342
X6.8326Y-0.1972
X6.8326Y-4.1342
X6.9326Y-0.1972
X6.9326Y-4.1342
X7.205Y-0.1972
X7.205Y-4.1342
X7.305Y-0.1972
X7.305Y-4.1342
X7.405Y-0.1972
X7.405Y-4.1342
T8
X0.5497Y-0.5297
X0.5497Y-0.9297
X0.5497Y-4.4667
X0.5497Y-4.8667
X1.1422Y-3.1197
X1.1422Y-3.5197
X1.1422Y-7.0567
X1.1422Y-7.4567
X6.7318Y-0.4173
X6.7318Y-0.8173
X6.7318Y-4.3543
X6.7318Y-4.7543
X7.3243Y-3.0073
X7.3243Y-3.4073
X7.3243Y-6.9443
X7.3243Y-7.3443
T9
X0.1966Y-3.2643
X0.1966Y-3.4643
X0.1966Y-7.2013
X0.1966Y-7.4013
X0.201Y-2.7791
X0.201Y-2.9791
X0.201Y-6.7162
X0.201Y-6.9162
X0.4721Y-0.1966
X0.4721Y-4.1336
X0.6721Y-0.1966
X0.6721Y-4.1336
X7.2019Y-3.7405
X7.2019Y-7.6775
X7.4019Y-3.7405
X7.4019Y-7.6775
X7.673Y-0.9579
X7.673Y-1.1579
X7.673Y-4.8949
X7.673Y-5.0949
X7.6775Y-0.4727
X7.6775Y-0.6727
X7.6775Y-4.4097
X7.6775Y-4.6097
T10
X0.1997Y-0.5497
X0.1997Y-0.7347
X0.1997Y-0.9197
X0.1997Y-4.4867
X0.1997Y-4.6717
X0.1997Y-4.8567
X7.6743Y-3.0173
X7.6743Y-3.2023
X7.6743Y-3.3873
X7.6743Y-6.9543
X7.6743Y-7.1393
X7.6743Y-7.3243
T0
M30
