M48
;DRILL file {KiCad 4.0.7-e2-6376~58~ubuntu16.04.1} date Sun Nov 18 23:19:11 2018
;FORMAT={-:-/ absolute / inch / decimal}
FMAT,2
INCH,TZ
T1C0.043
T2C0.063
T3C0.073
T4C0.126
%
G90
G05
M72
T1
X2.9329Y-1.4202
X2.9329Y-5.3572
X4.9411Y-2.5169
X4.9411Y-6.4539
T2
X2.9329Y-0.5934
X2.9329Y-4.5304
X4.9411Y-3.3436
X4.9411Y-7.2806
T3
X0.1372Y-0.4247
X0.1372Y-1.0447
X0.1372Y-4.3617
X0.1372Y-4.9817
X0.2622Y-0.4247
X0.2622Y-1.0447
X0.2622Y-4.3617
X0.2622Y-4.9817
X7.6118Y-2.8923
X7.6118Y-3.5123
X7.6118Y-6.8293
X7.6118Y-7.4493
X7.7368Y-2.8923
X7.7368Y-3.5123
X7.7368Y-6.8293
X7.7368Y-7.4493
T4
X-0.1969Y0.1969
X-0.1969Y-8.0709
X0.1966Y-0.1966
X0.1966Y-3.7399
X0.1966Y-4.1336
X0.1966Y-7.6769
X3.7402Y-0.1966
X3.7402Y-3.7402
X3.7402Y-4.1336
X3.7402Y-7.6772
X4.1338Y-0.1969
X4.1338Y-3.7405
X4.1338Y-4.1339
X4.1338Y-7.6775
X7.6775Y-0.1972
X7.6775Y-3.7405
X7.6775Y-4.1342
X7.6775Y-7.6775
X8.0709Y-8.0709
X8.1102Y0.1969
T0
M30
