G04 #@! TF.FileFunction,Profile,NP*
%FSLAX46Y46*%
G04 Gerber Fmt 4.6, Leading zero omitted, Abs format (unit mm)*
G04 Created by KiCad (PCBNEW 4.0.7-e2-6376~58~ubuntu16.04.1) date Sun Nov 18 23:18:58 2018*
%MOMM*%
%LPD*%
G01*
G04 APERTURE LIST*
%ADD10C,0.100000*%
%ADD11C,0.150000*%
G04 APERTURE END LIST*
D10*
D11*
X210000000Y-200000000D02*
X-10000000Y-200000000D01*
X200000000Y10000000D02*
X200000000Y-210000000D01*
X-10000000Y0D02*
X210000000Y0D01*
X100000000Y-210000000D02*
X100000000Y10000000D01*
X-10000000Y-100000000D02*
X210000000Y-100000000D01*
X0Y10000000D02*
X0Y-210000000D01*
X-10000000Y-210000000D02*
X-10000000Y10000000D01*
X210000000Y-210000000D02*
X-10000000Y-210000000D01*
X210000000Y10000000D02*
X210000000Y-210000000D01*
X-10000000Y10000000D02*
X210000000Y10000000D01*
X6666866Y-105000000D02*
G75*
G03X6666866Y-105000000I-1666666J0D01*
G01*
X2500200Y-105000000D02*
X7500200Y-105000000D01*
X5000200Y-102500000D02*
X5000200Y-107500000D01*
X0Y-100000000D02*
X0Y-200000000D01*
X100000000Y-200000000D02*
X100000000Y-100000000D01*
X0Y-200000000D02*
X100000000Y-200000000D01*
X100000000Y-100000000D02*
X0Y-100000000D01*
X196666466Y-195000000D02*
G75*
G03X196666466Y-195000000I-1666666J0D01*
G01*
X192499800Y-195000000D02*
X197499800Y-195000000D01*
X194999800Y-192500000D02*
X194999800Y-197500000D01*
X200000000Y-200000000D02*
X200000000Y-100000000D01*
X100000000Y-100000000D02*
X100000000Y-200000000D01*
X200000000Y-100000000D02*
X100000000Y-100000000D01*
X100000000Y-200000000D02*
X200000000Y-200000000D01*
X196666466Y-95000000D02*
G75*
G03X196666466Y-95000000I-1666666J0D01*
G01*
X192499800Y-95000000D02*
X197499800Y-95000000D01*
X194999800Y-92500000D02*
X194999800Y-97500000D01*
X200000000Y-100000000D02*
X200000000Y0D01*
X100000000Y0D02*
X100000000Y-100000000D01*
X200000000Y0D02*
X100000000Y0D01*
X100000000Y-100000000D02*
X200000000Y-100000000D01*
X6666866Y-5000000D02*
G75*
G03X6666866Y-5000000I-1666666J0D01*
G01*
X2500200Y-5000000D02*
X7500200Y-5000000D01*
X5000200Y-2500000D02*
X5000200Y-7500000D01*
X0Y0D02*
X0Y-100000000D01*
X100000000Y0D02*
X0Y0D01*
X100000000Y-100000000D02*
X100000000Y0D01*
X0Y-100000000D02*
X100000000Y-100000000D01*
M02*
