G04 #@! TF.FileFunction,Soldermask,Bot*
%FSLAX46Y46*%
G04 Gerber Fmt 4.6, Leading zero omitted, Abs format (unit mm)*
G04 Created by KiCad (PCBNEW 4.0.7-e2-6376~58~ubuntu16.04.1) date Sun Nov 18 23:18:58 2018*
%MOMM*%
%LPD*%
G01*
G04 APERTURE LIST*
%ADD10C,0.100000*%
%ADD11C,3.600000*%
%ADD12R,1.700000X1.900000*%
%ADD13R,2.100000X2.100000*%
%ADD14O,2.100000X2.100000*%
%ADD15R,2.400000X2.400000*%
%ADD16C,2.400000*%
%ADD17R,2.000000X2.000000*%
%ADD18O,2.000000X2.000000*%
%ADD19C,1.900000*%
%ADD20C,2.000000*%
%ADD21C,1.500000*%
%ADD22R,2.200000X2.200000*%
%ADD23C,2.200000*%
%ADD24R,3.400000X3.400000*%
%ADD25C,3.400000*%
%ADD26R,2.600000X2.600000*%
%ADD27O,2.600000X2.600000*%
%ADD28C,2.900000*%
%ADD29O,2.200000X2.200000*%
%ADD30C,1.400000*%
%ADD31R,1.400000X1.400000*%
%ADD32C,1.797000*%
%ADD33C,1.924000*%
%ADD34C,1.840000*%
G04 APERTURE END LIST*
D10*
D11*
X-5000000Y-205000000D03*
X-5000000Y5000000D03*
X206000000Y5000000D03*
X205000000Y-205000000D03*
D12*
X59182580Y-110206880D03*
X59182580Y-112906880D03*
X61722580Y-110206880D03*
X61722580Y-112906880D03*
X64262580Y-110206880D03*
X64262580Y-112906880D03*
X54102580Y-110206880D03*
X54102580Y-112906880D03*
X56642580Y-110206880D03*
X56642580Y-112906880D03*
D13*
X90416580Y-153840380D03*
D14*
X90416580Y-156380380D03*
X90416580Y-158920380D03*
X90416580Y-161460380D03*
X90416580Y-164000380D03*
X90416580Y-166540380D03*
X90416580Y-169080380D03*
X90416580Y-171620380D03*
D13*
X68933260Y-178188820D03*
D14*
X68933260Y-180728820D03*
D15*
X75400200Y-168000000D03*
D16*
X83000200Y-168000000D03*
D17*
X84328580Y-184836000D03*
D18*
X74168580Y-184836000D03*
D13*
X68933260Y-163152020D03*
D14*
X68933260Y-165692020D03*
D19*
X63056640Y-170218300D03*
X93769380Y-164000380D03*
X93769380Y-161460380D03*
X93769380Y-158920380D03*
X93777000Y-156380380D03*
X60190580Y-126535380D03*
X60190580Y-123995380D03*
X60190580Y-121455380D03*
X60190580Y-118915380D03*
D13*
X67780580Y-104999880D03*
D14*
X65240580Y-104999880D03*
X62700580Y-104999880D03*
X60160580Y-104999880D03*
X57620580Y-104999880D03*
X55080580Y-104999880D03*
X52540580Y-104999880D03*
X50000580Y-104999880D03*
D11*
X95000580Y-104992380D03*
D20*
X74496580Y-115071880D03*
D21*
X74496580Y-136071880D03*
D22*
X50165580Y-170484880D03*
D23*
X50165580Y-173024880D03*
D19*
X60516640Y-170218300D03*
X28186580Y-149649380D03*
X28186580Y-147109380D03*
D11*
X4992580Y-104992380D03*
D24*
X17072580Y-104992380D03*
D25*
X11992580Y-104992380D03*
D26*
X13962580Y-123614380D03*
D27*
X13962580Y-113454380D03*
D28*
X5072580Y-123360380D03*
X5072580Y-118661380D03*
X5072580Y-113962380D03*
X3485080Y-110787380D03*
X3485080Y-126535380D03*
X6660080Y-110787380D03*
X6660080Y-126535380D03*
D13*
X38862200Y-120700780D03*
D14*
X41402200Y-120700780D03*
D19*
X40106580Y-125654000D03*
X40106580Y-128194000D03*
X28186580Y-144569380D03*
X28186580Y-142029380D03*
D24*
X5106580Y-170590380D03*
D25*
X5106580Y-175670380D03*
D11*
X4992580Y-194992380D03*
D24*
X4992580Y-182912380D03*
D25*
X4992580Y-187992380D03*
D22*
X28992580Y-194992380D03*
D29*
X26452580Y-194992380D03*
X23912580Y-194992380D03*
D26*
X29012080Y-179240380D03*
D27*
X29012080Y-189400380D03*
D17*
X18026580Y-182034380D03*
D18*
X12946580Y-189654380D03*
X15486580Y-182034380D03*
X15486580Y-189654380D03*
X12946580Y-182034380D03*
X18026580Y-189654380D03*
D22*
X16992580Y-194992380D03*
D29*
X14452580Y-194992380D03*
X11912580Y-194992380D03*
D30*
X46606660Y-179463900D03*
X47876660Y-178193900D03*
D31*
X47876660Y-180733900D03*
D32*
X51057142Y-189919880D03*
X51057142Y-194999880D03*
X43437142Y-189919880D03*
X43437142Y-194999880D03*
D33*
X37932360Y-184388960D03*
X34732360Y-179388960D03*
X34732360Y-189388960D03*
D32*
X65620580Y-189919880D03*
X65620580Y-194999880D03*
X58000580Y-189919880D03*
X58000580Y-194999880D03*
D34*
X88000580Y-194999880D03*
X88000580Y-192459880D03*
X88000580Y-189919880D03*
D11*
X95000580Y-194999880D03*
D32*
X80620580Y-189919880D03*
X80620580Y-194999880D03*
X73000580Y-189919880D03*
X73000580Y-194999880D03*
D12*
X140817420Y-189793120D03*
X140817420Y-187093120D03*
X138277420Y-189793120D03*
X138277420Y-187093120D03*
X135737420Y-189793120D03*
X135737420Y-187093120D03*
X145897420Y-189793120D03*
X145897420Y-187093120D03*
X143357420Y-189793120D03*
X143357420Y-187093120D03*
D13*
X109583420Y-146159620D03*
D14*
X109583420Y-143619620D03*
X109583420Y-141079620D03*
X109583420Y-138539620D03*
X109583420Y-135999620D03*
X109583420Y-133459620D03*
X109583420Y-130919620D03*
X109583420Y-128379620D03*
D13*
X131066740Y-121811180D03*
D14*
X131066740Y-119271180D03*
D15*
X124599800Y-132000000D03*
D16*
X116999800Y-132000000D03*
D17*
X115671420Y-115164000D03*
D18*
X125831420Y-115164000D03*
D13*
X131066740Y-136847980D03*
D14*
X131066740Y-134307980D03*
D19*
X136943360Y-129781700D03*
X106230620Y-135999620D03*
X106230620Y-138539620D03*
X106230620Y-141079620D03*
X106223000Y-143619620D03*
X139809420Y-173464620D03*
X139809420Y-176004620D03*
X139809420Y-178544620D03*
X139809420Y-181084620D03*
D13*
X132219420Y-195000120D03*
D14*
X134759420Y-195000120D03*
X137299420Y-195000120D03*
X139839420Y-195000120D03*
X142379420Y-195000120D03*
X144919420Y-195000120D03*
X147459420Y-195000120D03*
X149999420Y-195000120D03*
D11*
X104999420Y-195007620D03*
D20*
X125503420Y-184928120D03*
D21*
X125503420Y-163928120D03*
D22*
X149834420Y-129515120D03*
D23*
X149834420Y-126975120D03*
D19*
X139483360Y-129781700D03*
X171813420Y-150350620D03*
X171813420Y-152890620D03*
D11*
X195007420Y-195007620D03*
D24*
X182927420Y-195007620D03*
D25*
X188007420Y-195007620D03*
D26*
X186037420Y-176385620D03*
D27*
X186037420Y-186545620D03*
D28*
X194927420Y-176639620D03*
X194927420Y-181338620D03*
X194927420Y-186037620D03*
X196514920Y-189212620D03*
X196514920Y-173464620D03*
X193339920Y-189212620D03*
X193339920Y-173464620D03*
D13*
X161137800Y-179299220D03*
D14*
X158597800Y-179299220D03*
D19*
X159893420Y-174346000D03*
X159893420Y-171806000D03*
X171813420Y-155430620D03*
X171813420Y-157970620D03*
D24*
X194893420Y-129409620D03*
D25*
X194893420Y-124329620D03*
D11*
X195007420Y-105007620D03*
D24*
X195007420Y-117087620D03*
D25*
X195007420Y-112007620D03*
D22*
X171007420Y-105007620D03*
D29*
X173547420Y-105007620D03*
X176087420Y-105007620D03*
D26*
X170987920Y-120759620D03*
D27*
X170987920Y-110599620D03*
D17*
X181973420Y-117965620D03*
D18*
X187053420Y-110345620D03*
X184513420Y-117965620D03*
X184513420Y-110345620D03*
X187053420Y-117965620D03*
X181973420Y-110345620D03*
D22*
X183007420Y-105007620D03*
D29*
X185547420Y-105007620D03*
X188087420Y-105007620D03*
D30*
X153393340Y-120536100D03*
X152123340Y-121806100D03*
D31*
X152123340Y-119266100D03*
D32*
X148942858Y-110080120D03*
X148942858Y-105000120D03*
X156562858Y-110080120D03*
X156562858Y-105000120D03*
D33*
X162067640Y-115611040D03*
X165267640Y-120611040D03*
X165267640Y-110611040D03*
D32*
X134379420Y-110080120D03*
X134379420Y-105000120D03*
X141999420Y-110080120D03*
X141999420Y-105000120D03*
D34*
X111999420Y-105000120D03*
X111999420Y-107540120D03*
X111999420Y-110080120D03*
D11*
X104999420Y-105000120D03*
D32*
X119379420Y-110080120D03*
X119379420Y-105000120D03*
X126999420Y-110080120D03*
X126999420Y-105000120D03*
D12*
X140817420Y-89793120D03*
X140817420Y-87093120D03*
X138277420Y-89793120D03*
X138277420Y-87093120D03*
X135737420Y-89793120D03*
X135737420Y-87093120D03*
X145897420Y-89793120D03*
X145897420Y-87093120D03*
X143357420Y-89793120D03*
X143357420Y-87093120D03*
D13*
X109583420Y-46159620D03*
D14*
X109583420Y-43619620D03*
X109583420Y-41079620D03*
X109583420Y-38539620D03*
X109583420Y-35999620D03*
X109583420Y-33459620D03*
X109583420Y-30919620D03*
X109583420Y-28379620D03*
D13*
X131066740Y-21811180D03*
D14*
X131066740Y-19271180D03*
D15*
X124599800Y-32000000D03*
D16*
X116999800Y-32000000D03*
D17*
X115671420Y-15164000D03*
D18*
X125831420Y-15164000D03*
D13*
X131066740Y-36847980D03*
D14*
X131066740Y-34307980D03*
D19*
X136943360Y-29781700D03*
X106230620Y-35999620D03*
X106230620Y-38539620D03*
X106230620Y-41079620D03*
X106223000Y-43619620D03*
X139809420Y-73464620D03*
X139809420Y-76004620D03*
X139809420Y-78544620D03*
X139809420Y-81084620D03*
D13*
X132219420Y-95000120D03*
D14*
X134759420Y-95000120D03*
X137299420Y-95000120D03*
X139839420Y-95000120D03*
X142379420Y-95000120D03*
X144919420Y-95000120D03*
X147459420Y-95000120D03*
X149999420Y-95000120D03*
D11*
X104999420Y-95007620D03*
D20*
X125503420Y-84928120D03*
D21*
X125503420Y-63928120D03*
D22*
X149834420Y-29515120D03*
D23*
X149834420Y-26975120D03*
D19*
X139483360Y-29781700D03*
X171813420Y-50350620D03*
X171813420Y-52890620D03*
D11*
X195007420Y-95007620D03*
D24*
X182927420Y-95007620D03*
D25*
X188007420Y-95007620D03*
D26*
X186037420Y-76385620D03*
D27*
X186037420Y-86545620D03*
D28*
X194927420Y-76639620D03*
X194927420Y-81338620D03*
X194927420Y-86037620D03*
X196514920Y-89212620D03*
X196514920Y-73464620D03*
X193339920Y-89212620D03*
X193339920Y-73464620D03*
D13*
X161137800Y-79299220D03*
D14*
X158597800Y-79299220D03*
D19*
X159893420Y-74346000D03*
X159893420Y-71806000D03*
X171813420Y-55430620D03*
X171813420Y-57970620D03*
D24*
X194893420Y-29409620D03*
D25*
X194893420Y-24329620D03*
D11*
X195007420Y-5007620D03*
D24*
X195007420Y-17087620D03*
D25*
X195007420Y-12007620D03*
D22*
X171007420Y-5007620D03*
D29*
X173547420Y-5007620D03*
X176087420Y-5007620D03*
D26*
X170987920Y-20759620D03*
D27*
X170987920Y-10599620D03*
D17*
X181973420Y-17965620D03*
D18*
X187053420Y-10345620D03*
X184513420Y-17965620D03*
X184513420Y-10345620D03*
X187053420Y-17965620D03*
X181973420Y-10345620D03*
D22*
X183007420Y-5007620D03*
D29*
X185547420Y-5007620D03*
X188087420Y-5007620D03*
D30*
X153393340Y-20536100D03*
X152123340Y-21806100D03*
D31*
X152123340Y-19266100D03*
D32*
X148942858Y-10080120D03*
X148942858Y-5000120D03*
X156562858Y-10080120D03*
X156562858Y-5000120D03*
D33*
X162067640Y-15611040D03*
X165267640Y-20611040D03*
X165267640Y-10611040D03*
D32*
X134379420Y-10080120D03*
X134379420Y-5000120D03*
X141999420Y-10080120D03*
X141999420Y-5000120D03*
D34*
X111999420Y-5000120D03*
X111999420Y-7540120D03*
X111999420Y-10080120D03*
D11*
X104999420Y-5000120D03*
D32*
X119379420Y-10080120D03*
X119379420Y-5000120D03*
X126999420Y-10080120D03*
X126999420Y-5000120D03*
D13*
X90416580Y-53840380D03*
D14*
X90416580Y-56380380D03*
X90416580Y-58920380D03*
X90416580Y-61460380D03*
X90416580Y-64000380D03*
X90416580Y-66540380D03*
X90416580Y-69080380D03*
X90416580Y-71620380D03*
D32*
X65620580Y-89919880D03*
X65620580Y-94999880D03*
X58000580Y-89919880D03*
X58000580Y-94999880D03*
D34*
X88000580Y-94999880D03*
X88000580Y-92459880D03*
X88000580Y-89919880D03*
D11*
X95000580Y-94999880D03*
X95000580Y-4992380D03*
D33*
X37932360Y-84388960D03*
X34732360Y-79388960D03*
X34732360Y-89388960D03*
D11*
X4992580Y-94992380D03*
D15*
X75400200Y-68000000D03*
D16*
X83000200Y-68000000D03*
D26*
X13962580Y-23614380D03*
D27*
X13962580Y-13454380D03*
D17*
X84328580Y-84836000D03*
D18*
X74168580Y-84836000D03*
D26*
X29012080Y-79240380D03*
D27*
X29012080Y-89400380D03*
D20*
X74496580Y-15071880D03*
D21*
X74496580Y-36071880D03*
D24*
X17072580Y-4992380D03*
D25*
X11992580Y-4992380D03*
D13*
X67780580Y-4999880D03*
D14*
X65240580Y-4999880D03*
X62700580Y-4999880D03*
X60160580Y-4999880D03*
X57620580Y-4999880D03*
X55080580Y-4999880D03*
X52540580Y-4999880D03*
X50000580Y-4999880D03*
D24*
X4992580Y-82912380D03*
D25*
X4992580Y-87992380D03*
D13*
X38862200Y-20700780D03*
D14*
X41402200Y-20700780D03*
D13*
X68933260Y-63152020D03*
D14*
X68933260Y-65692020D03*
D13*
X68933260Y-78188820D03*
D14*
X68933260Y-80728820D03*
D30*
X46606660Y-79463900D03*
X47876660Y-78193900D03*
D31*
X47876660Y-80733900D03*
D22*
X16992580Y-94992380D03*
D29*
X14452580Y-94992380D03*
X11912580Y-94992380D03*
D22*
X28992580Y-94992380D03*
D29*
X26452580Y-94992380D03*
X23912580Y-94992380D03*
D12*
X64262580Y-10206880D03*
X64262580Y-12906880D03*
X61722580Y-10206880D03*
X61722580Y-12906880D03*
X59182580Y-10206880D03*
X59182580Y-12906880D03*
X56642580Y-10206880D03*
X56642580Y-12906880D03*
X54102580Y-10206880D03*
X54102580Y-12906880D03*
D28*
X5072580Y-23360380D03*
X5072580Y-18661380D03*
X5072580Y-13962380D03*
X3485080Y-10787380D03*
X3485080Y-26535380D03*
X6660080Y-10787380D03*
X6660080Y-26535380D03*
D32*
X51057142Y-89919880D03*
X51057142Y-94999880D03*
X43437142Y-89919880D03*
X43437142Y-94999880D03*
X80620580Y-89919880D03*
X80620580Y-94999880D03*
X73000580Y-89919880D03*
X73000580Y-94999880D03*
D19*
X40106580Y-28194000D03*
X40106580Y-25654000D03*
X60516640Y-70218300D03*
X60190580Y-18915380D03*
X60190580Y-23995380D03*
X60190580Y-26535380D03*
X60190580Y-21455380D03*
X93769380Y-64000380D03*
X93777000Y-56380380D03*
X93769380Y-58920380D03*
X93769380Y-61460380D03*
X28186580Y-44569380D03*
X28186580Y-42029380D03*
X28186580Y-47109380D03*
X28186580Y-49649380D03*
D17*
X18026580Y-82034380D03*
D18*
X12946580Y-89654380D03*
X15486580Y-82034380D03*
X15486580Y-89654380D03*
X12946580Y-82034380D03*
X18026580Y-89654380D03*
D11*
X4992580Y-4992380D03*
D24*
X5106580Y-70590380D03*
D25*
X5106580Y-75670380D03*
D22*
X50165580Y-70484880D03*
D23*
X50165580Y-73024880D03*
D19*
X63056640Y-70218300D03*
M02*
